<?xml version="1.0" standalone="no"?>
<!DOCTYPE svg PUBLIC "-//W3C//DTD SVG 1.1//EN" "http://www.w3.org/Graphics/SVG/1.1/DTD/svg11.dtd" >
<svg xmlns="http://www.w3.org/2000/svg">
<metadata>Generated by IcoMoon</metadata>
<defs>
<font id="base-icons" horiz-adv-x="512">
<font-face units-per-em="512" ascent="480" descent="-32" />
<missing-glyph horiz-adv-x="512" />
<glyph unicode="&#x20;" d="" horiz-adv-x="256" />
<glyph unicode="&#x21b8;" d="M185.968 367.079l96.992-56c7.664-4.416 17.44-1.792 21.84 5.856 4.432 7.648 1.808 17.44-5.84 21.84l-96.992 56c-7.664 4.416-17.44 1.792-21.856-5.84-4.432-7.648-1.792-17.424 5.856-21.856zM274.976 297.223l-96.992 56-56-96.992 96.992-56 56 96.992zM97.968 214.663l96.992-56c7.648-4.416 17.44-1.792 21.84 5.856 4.416 7.648 1.792 17.44-5.84 21.84l-96.992 56c-7.664 4.416-17.44 1.792-21.856-5.84-4.432-7.648-1.792-17.44 5.856-21.856zM432.192 169.511l-177.216 93.072-16-27.712 169.216-106.928c11.472-6.624 26.16-2.704 32.784 8.784s2.688 26.16-8.784 32.784zM256.528 88.727c0 8.848-7.168 16-16 16h-144c-8.848 0-16-7.152-16-16 0-8.832 0-16 0-16l-16.528 0.336 0.528-16.336h208l0.752 15.328-15.744 0.672c0 0-1.008 7.168-1.008 16z" />
<glyph unicode="&#xe000;" d="M187.2 410.327c0 0 0-0.001 0-0.001 0-37.997 30.803-68.8 68.8-68.8s68.799 30.803 68.8 68.8c0 37.997-30.803 68.8-68.8 68.8s-68.8-30.803-68.8-68.8zM187.2 235.138c0.001-37.997 30.803-68.798 68.8-68.798s68.8 30.803 68.8 68.8c0 0 0 0.001 0 0.001 0 37.997-30.803 68.8-68.8 68.8s-68.8-30.803-68.8-68.8zM187.2 58.681c0.001-37.997 30.803-68.798 68.8-68.798s68.8 30.803 68.8 68.8c0 0 0 0.001 0 0.002 0 37.997-30.803 68.8-68.8 68.8s-68.8-30.803-68.8-68.8z" />
<glyph unicode="&#xe001;" d="M502.25 210.977q-9.75-9.75-23.5-9.75t-23.25 9.5l-7.5 7.5v-209.5q0-13-9.25-22.5t-22.75-9.5h-96v144q0 6.5-4.75 11.25t-11.25 4.75h-96q-6.5 0-11.25-4.75t-4.75-11.25v-144h-96q-13.5 0-22.75 9.5t-9.25 22.5v209.5l-7.5-7.5q-9.5-9.5-23.25-9.5t-23.5 9.75-9.75 23.5 9.5 23.25l222 222q10 10 24.5 9.5 14.5 0.5 24.5-9.5l222-222q9.5-9.5 9.5-23.25t-9.75-23.5z" />
<glyph unicode="&#xe002;" d="M156 163.799l-60 59.088 60 59.072 62.896-61.936 157.104 140.704 40-39.392-200-216.608-60 59.072zM0 232.727c0-141.392 114.608-256 256-256 141.376 0 256 114.608 256 256 0 141.376-114.624 256-256 256-141.392 0-256-114.624-256-256z" />
<glyph unicode="&#xe003;" d="M240 328.727c0 8.837 7.163 16 16 16s16-7.163 16-16c0-8.837-7.163-16-16-16s-16 7.163-16 16zM240 136.727c0 8.837 7.163 16 16 16s16-7.163 16-16c0-8.837-7.163-16-16-16s-16 7.163-16 16zM144 232.727c0 8.837 7.163 16 16 16s16-7.163 16-16c0-8.837-7.163-16-16-16s-16 7.163-16 16zM336 232.727c0 8.837 7.163 16 16 16s16-7.163 16-16c0-8.837-7.163-16-16-16s-16 7.163-16 16zM172.112 164.855c0 8.837 7.163 16 16 16s16-7.163 16-16c0-8.837-7.163-16-16-16s-16 7.163-16 16zM172.112 300.615c0 8.837 7.163 16 16 16s16-7.163 16-16c0-8.837-7.163-16-16-16s-16 7.163-16 16zM307.872 164.855c0 8.837 7.163 16 16 16s16-7.163 16-16c0-8.837-7.163-16-16-16s-16 7.163-16 16zM416 264.727c-1.12 0-2.064-0.528-3.152-0.64-5.568 27.92-18.72 52.896-36.752 73.504l-22.976 124.992c-2.8 15.152-16.032 26.144-31.456 26.144h-128c-15.424 0-28.64-11.008-31.472-26.16l-22.4-120.784c-26.88-28.592-43.792-66.688-43.792-109.056 0-41.328 16.224-78.48 41.936-106.848l22.592-123.008c2.816-15.136 16.048-26.144 31.472-26.144h128c15.408 0 28.624 11.008 31.472 26.16l22.784 122.912c19.024 20.976 32.848 46.72 38.592 75.6 1.088-0.144 2.032-0.672 3.152-0.672 17.664 0 32 14.336 32 32 0 17.68-14.336 32-32 32zM193.664 456.727h128l16-86.192c-23.632 13.744-50.688 22.192-80 22.192-29.296 0-56.368-8.448-80-22.192l16 86.192zM320 8.727h-128l-16 86.192c23.616-13.728 50.688-22.192 80-22.192 29.296 0 56.384 8.464 80 22.192l-16-86.192zM256 104.727c-70.576 0-128 57.44-128 128 0 70.576 57.424 128 128 128s128-57.424 128-128c0-70.56-57.44-128-128-128zM335.056 312.311c1.936-1.936 2.128-5.056 0.448-7.184l-38.816-48.336-29.568-35.6c-3.024-2.912-7.184-4.4-11.184-4.432-4.304 0.032-8.32 1.696-11.312 4.672s-4.624 6.96-4.624 11.168c0 4.352 1.68 8.416 4.736 11.488l83.072 68.56c2.192 1.76 5.312 1.6 7.248-0.336z" />
<glyph unicode="&#xe004;" d="M288 213.982l54.627-54.628-45.254-45.254-73.373 73.372v109.255h64zM416 456.727c53.020 0 96-42.98 96-96 0-32.492-16.145-61.209-40.846-78.579-23.295 61.522-72.211 110.438-133.733 133.733 17.37 24.701 46.088 40.846 78.579 40.846zM174.579 415.881c-61.522-23.295-110.438-72.211-133.733-133.733-24.701 17.37-40.846 46.087-40.846 78.579 0 53.020 42.98 96 96 96 32.492 0 61.209-16.145 78.579-40.846zM256 392.727c-106.039 0-192-85.961-192-192 0-46.337 16.416-88.839 43.747-122.010l-11.747-101.99h32l31.996 57.694c28.242-16.339 61.029-25.694 96.004-25.694 34.974 0 67.76 9.355 96.002 25.693l-0.002-0.002 32-57.691h32l-11.751 101.984c27.334 33.173 43.751 75.676 43.751 122.016 0 106.039-85.961 192-192 192zM256 72.727c-70.692 0-128 57.308-128 128s57.308 128 128 128 128-57.308 128-128-57.308-128-128-128z" />
<glyph unicode="&#xe005;" d="M256 468.247c-130.073 0-235.52-105.472-235.52-235.52 0-130.073 105.447-235.52 235.52-235.52s235.52 105.447 235.52 235.52c0 130.073-105.446 235.52-235.52 235.52zM256 48.407c-101.811 0-184.32 82.534-184.32 184.32s82.509 184.32 184.32 184.32 184.32-82.534 184.32-184.32-82.509-184.32-184.32-184.32zM273.92 365.847h-35.84v-140.544l87.168-87.168 25.344 25.344-76.672 76.672z" />
<glyph unicode="&#xe006;" d="M432 488.727h-384c-26.4 0-48-21.6-48-48v-416c0-26.4 21.6-48 48-48h384c26.4 0 48 21.6 48 48v416c0 26.4-21.6 48-48 48zM416 40.727h-352v384h352v-384zM128 264.727h224v-32h-224zM128 200.727h224v-32h-224zM128 136.727h224v-32h-224zM128 328.727h224v-32h-224z" />
<glyph unicode="&#xe007;" d="M256 328.727c-104.684 0-197.622-50.278-256-128 58.378-77.723 151.316-128 256-128s197.622 50.277 256 128c-58.378 77.722-151.316 128-256 128zM224 264.727c17.673 0 32-14.327 32-32s-14.327-32-32-32-32 14.327-32 32 14.327 32 32 32zM386.808 136.079c-19.824-10.129-40.826-17.931-62.423-23.188-22.244-5.418-45.251-8.164-68.385-8.164-23.133 0-46.141 2.746-68.384 8.162-21.597 5.259-42.599 13.061-62.423 23.188-31.51 16.101-60.111 38.205-83.82 64.649 23.709 26.444 52.31 48.55 83.82 64.649 16.168 8.261 33.121 14.973 50.541 20.020-9.944-15.121-15.734-33.217-15.734-52.668 0-53.020 42.981-96 96-96s96 42.98 96 96c0 19.451-5.791 37.547-15.733 52.67 17.419-5.048 34.372-11.76 50.541-20.021 31.511-16.099 60.109-38.204 83.819-64.649-23.71-26.443-52.309-48.55-83.819-64.648zM430.459 366.866c-54.36 27.777-113.056 41.861-174.459 41.861s-120.099-14.084-174.459-41.861c-29.386-15.016-56.866-33.952-81.541-56.038v-54.603c27.669 29.283 60.347 53.877 96.097 72.145 49.81 25.452 103.609 38.357 159.903 38.357s110.093-12.905 159.902-38.358c35.751-18.268 68.429-42.862 96.098-72.145v54.603c-24.675 22.087-52.154 41.023-81.541 56.039z" />
<glyph unicode="&#xe008;" d="M419.661 340.519c38.822-27.515 70.685-64.546 92.339-107.792-47.561-94.979-144.343-160-256-160-31.283 0-61.396 5.106-89.589 14.542l38.978 38.978c16.529-3.65 33.486-5.52 50.611-5.52 44.779 0 88.427 12.743 126.223 36.852 30.081 19.188 55.572 44.888 74.718 75.149-18.526 29.283-43.007 54.275-71.825 73.247l34.545 34.544zM256 139.727c-11.362 0-22.376 1.488-32.864 4.267l156.593 156.592c2.781-10.486 4.271-21.497 4.271-32.859 0-70.692-57.308-128-128-128zM480 488.727h-26.869l-109.806-109.806c-27.538 8.962-56.877 13.806-87.325 13.806-111.659 0-208.441-65.021-256-160 21.329-42.596 52.564-79.154 90.597-106.534l-90.597-90.597v-26.869h26.869l453.131 453.131v26.869zM208 331.727c24.022 0 43.923-17.647 47.446-40.685l-54.762-54.762c-23.037 3.524-40.684 23.425-40.684 47.447 0 26.51 21.49 48 48 48zM55.058 232.727c19.146 30.262 44.637 55.962 74.717 75.148 1.959 1.25 3.938 2.461 5.929 3.65-4.979-13.664-7.704-28.411-7.704-43.798 0-29.262 9.825-56.224 26.349-77.781l-29.275-29.275c-28.036 18.821-51.877 43.386-70.016 72.056z" />
<glyph unicode="&#xe009;" d="M416 120.727h-32v32h16v32h-304v-32h16v-32h-32c-8.832 0-16 7.168-16 16v160c0 15.472 64 32 176 32 5.936 0 11.184 0 16 0 111.008 0 176-16.16 176-32v-160c0-8.832-7.152-16-16-16zM376 280.727c-13.248 0-24-10.752-24-24s10.752-24 24-24 24 10.752 24 24-10.752 24-24 24zM128 424.727c0 8.848 7.168 16 16 16h208c8.848 0 16-7.152 16-16v-80h-240v80zM368 24.727c0-8.832-7.152-16-16-16h-208c-8.832 0-16 7.168-16 16v144h240v-144zM336 152.727h-176v-16h176v16zM336 120.727h-176v-16h176v16zM336 88.727h-176v-16h176v16zM336 56.727h-176v-16h176v16z" />
<glyph unicode="&#xe00a;" d="M415.92 183.639h-21.184c-3.44-12.464-8.368-24.288-14.688-35.248l19.584-19.568c12.528-12.528 12.528-32.848 0-45.376l-11.344-11.344c-12.528-12.528-32.848-12.528-45.376 0l-19.712 19.696c-10.928-6.224-22.704-11.072-35.104-14.448v-20.544c0-17.712-14.352-32.080-32.080-32.080h-16.032c-17.712 0-32.096 14.352-32.096 32.080v20.544c-12.384 3.376-24.176 8.24-35.104 14.448l-19.696-19.696c-12.512-12.528-32.832-12.528-45.36 0l-11.36 11.344c-12.528 12.528-12.528 32.848 0 45.376l19.584 19.568c-6.32 10.976-11.248 22.784-14.704 35.248h-21.168c-17.728 0-32.080 14.352-32.080 32.064v16.048c0 17.712 14.352 32.080 32.080 32.080h20.928c3.312 12.336 8.048 24.080 14.192 34.976l-18.832 18.816c-12.528 12.528-12.528 32.848 0 45.376l11.344 11.328c12.528 12.528 32.848 12.528 45.36 0l18.448-18.448c11.296 6.576 23.488 11.696 36.352 15.2v21.568c0.016 17.728 14.4 32.080 32.112 32.080h16.032c17.712 0 32.080-14.352 32.080-32.080v-21.552c12.896-3.52 25.072-8.64 36.352-15.216l18.448 18.448c12.528 12.528 32.848 12.528 45.376 0l11.344-11.328c12.528-12.528 12.528-32.848 0-45.376l-18.816-18.816c6.144-10.896 10.88-22.64 14.208-34.992h20.928c17.712 0 32.080-14.368 32.080-32.080v-16.048c-0.016-17.696-14.368-32.048-32.096-32.048zM248 311.447c-48.72 0-88.224-39.504-88.224-88.224s39.504-88.224 88.224-88.224 88.224 39.504 88.224 88.224-39.504 88.224-88.224 88.224zM248 184.135c-22.144 0-40.112 17.936-40.112 40.096 0 22.144 17.968 40.096 40.112 40.096s40.096-17.952 40.096-40.096c0-22.16-17.952-40.096-40.096-40.096z" />
<glyph unicode="&#xe00b;" d="M96 40.727h48v144h-48v-144zM288 200.727h-80c-8.848 0-16-7.152-16-16v-48c0-8.832 7.152-16 16-16h80c8.832 0 16 7.168 16 16v48c0 8.848-7.168 16-16 16zM224.496 137.223h-16v47.008h16v-47.008zM255.504 137.223h-16v47.008h16v-47.008zM288.496 137.223h-16v47.008h16v-47.008zM272 424.727h-48v-208h48v208zM400 424.727h-48v-80h48v80zM144 424.727h-48v-128h48v128zM352 40.727h48v192h-48v-192zM224 40.727h48v64h-48v-64zM160 280.727h-80c-8.848 0-16-7.152-16-16v-48c0-8.832 7.152-16 16-16h80c8.832 0 16 7.168 16 16v48c0 8.848-7.168 16-16 16zM96.496 217.223h-16v47.008h16v-47.008zM128.496 217.223h-16v47.008h16v-47.008zM160.496 217.223h-16v47.008h16v-47.008zM416 328.727h-80c-8.848 0-16-7.152-16-16v-48c0-8.832 7.152-16 16-16h80c8.832 0 16 7.168 16 16v48c0 8.848-7.168 16-16 16zM352.496 265.223h-16v47.008h16v-47.008zM383.504 265.223h-16v47.008h16v-47.008zM416.496 265.223h-16v47.008h16v-47.008z" />
<glyph unicode="&#xe00c;" d="M256 440.727c-114.88 0-208-93.12-208-208s93.12-208 208-208 208 93.12 208 208-93.12 208-208 208zM256 72.727c-88.352 0-160 71.648-160 160 0 88.368 71.648 160 160 160 88.368 0 160-71.632 160-160 0-88.352-71.632-160-160-160zM315.808 248.727h-128c-8.848 0-16-7.168-16-16 0-8.848 7.152-16 16-16h128c8.848 0 16 7.152 16 16 0 8.832-7.152 16-16 16z" />
<glyph unicode="&#xe00d;" d="M248 432.727c-114.88 0-208-93.12-208-208s93.12-208 208-208c114.88 0 208 93.12 208 208s-93.12 208-208 208zM352 218.727c0-8.848-7.168-16-16-16h-176c-8.848 0-16 7.152-16 16v16c0 8.832 7.152 16 16 16h176c8.832 0 16-7.168 16-16v-16z" />
<glyph unicode="&#xe00e;" d="M460.8 411.927h-244.582c-11.264 0-27.418-6.067-35.891-13.491l-173.978-152.218c-8.473-7.424-8.473-19.558 0-26.983l173.977-152.243c8.474-7.398 24.627-13.465 35.892-13.465h244.582c28.186 0 51.2 23.040 51.2 51.2v256c0 28.16-23.014 51.2-51.2 51.2zM388.889 130.327l-65.459 65.459-65.408-65.459-36.967 36.941 65.435 65.459-65.434 65.434 36.966 36.966 65.433-65.433 65.434 65.433 36.941-36.967-65.407-65.433 65.433-65.433-36.967-36.967z" />
<glyph unicode="&#xe00f;" d="M256 447.767c-118.784 0-215.040-96.307-215.040-215.040 0-118.784 96.281-215.040 215.040-215.040 118.758 0 215.040 96.281 215.040 215.040s-96.281 215.040-215.040 215.040zM300.262 232.727l78.362-78.362-44.263-44.263-78.361 78.363-78.362-78.362-44.237 44.263 78.337 78.361-78.336 78.336 44.237 44.263 78.361-78.337 78.362 78.336 44.263-44.237-78.363-78.361z" />
<glyph unicode="&#xe011;" d="M388.403 437.527h-286.003c-28.16 0-51.2-23.040-51.2-51.2v-307.2c0-28.16 23.040-51.2 51.2-51.2h307.2c28.16 0 51.2 23.040 51.2 51.2v278.349l-72.397 80.051zM358.4 283.927c0-14.080-11.52-25.6-25.6-25.6h-153.6c-14.080 0-25.6 11.52-25.6 25.6v128h204.8v-128zM332.8 386.327h-51.2v-102.4h51.2v102.4z" />
<glyph unicode="&#xe012;" d="M448 488.727h-448v-512h512v448l-64 64zM256 424.727h64v-128h-64v128zM448 40.727h-384v384h32v-160h288v160h37.489l26.511-26.509v-357.491z" />
<glyph unicode="&#xe013;" d="M384 463.127h-256c-28.16 0-51.2-23.040-51.2-51.2v-358.4c0-28.16 23.040-51.2 51.2-51.2h256c28.16 0 51.2 23.040 51.2 51.2v358.4c0 28.16-23.040 51.2-51.2 51.2zM148.787 356.4h214.4v-44.8l-214.4 0.001v44.799zM363.187 110.615h-214.4v44.8h214.4v-44.8zM363.801 210.455h-214.4v46.080h214.4v-46.080z" />
<glyph unicode="&#xe014;" d="M184.909 210.455h143.36v46.080h-143.36v-46.080zM384 463.127h-256c-28.16 0-51.2-23.040-51.2-51.2v-358.4c0-28.16 23.040-51.2 51.2-51.2h256c28.16 0 51.2 23.040 51.2 51.2v358.4c0 28.16-23.040 51.2-51.2 51.2zM384 53.527h-256v358.4h256v-358.4zM327.68 356.4h-143.36v-44.8h143.36v44.8zM327.68 155.415h-143.36v-44.8h143.36v44.8z" />
<glyph unicode="&#xe015;" d="M469.344 440.727h-69.344v32c0 8.848-7.152 16-16 16s-16-7.152-16-16v-32h-96v32c0 8.848-7.168 16-16 16s-16-7.152-16-16v-32h-96v32c0 8.848-7.168 16-16 16s-16-7.152-16-16v-32h-69.328c-23.568 0-42.672-19.088-42.672-42.656v-378.672c0-23.568 19.104-42.672 42.672-42.672h426.672c23.568 0 42.656 19.104 42.656 42.672v378.672c0 23.568-19.088 42.656-42.656 42.656zM480 19.399c0-5.888-4.784-10.672-10.656-10.672h-426.672c-5.888 0-10.672 4.784-10.672 10.672v378.672c0 5.872 4.784 10.656 10.672 10.656h69.328v-32c0-8.848 7.168-16 16-16s16 7.152 16 16v32h96v-32c0-8.848 7.168-16 16-16s16 7.152 16 16v32h96v-32c0-8.848 7.152-16 16-16s16 7.152 16 16v32h69.344c5.872 0 10.656-4.784 10.656-10.656v-378.672zM112 296.727h64v-48h-64zM112 216.727h64v-48h-64zM112 136.727h64v-48h-64zM224 136.727h64v-48h-64zM224 216.727h64v-48h-64zM224 296.727h64v-48h-64zM336 136.727h64v-48h-64zM336 216.727h64v-48h-64zM336 296.727h64v-48h-64z" />
<glyph unicode="&#xe017;" d="M385.024 383.399l-60.368-134h-17.568l64.384 142.656h-99.408v-332.336c20.48-0.752 125.008-34.672 125.008-34.672v-16.32h-280.96v17.424c0 0 106.848 33.584 122.944 33.584v332.32h-96.24l64.4-142.656h-17.568l-60.368 134-60.368-134h-17.568l64.768 143.456v16.544h108.064c0 21.648 14.512 39.328 31.44 39.328 17.904 0 31.44-18.688 31.44-39.328h110.048v-14.192l65.856-145.808h-17.568l-60.368 134zM208.32 233.063c0-43.088-29.888-84.512-79.024-84.512-48.032 0-79.024 41.424-79.024 84.512-0.016-0.064 158.048-0.064 158.048 0zM308.192 233.063c0-0.080 158.064-0.080 158.064 0 0-43.088-29.888-84.512-79.024-84.512-48.048 0-79.040 41.424-79.040 84.512z" />
<glyph unicode="&#xe018;" d="M512 290.202l-176.89 25.704-79.11 160.291-79.108-160.291-176.892-25.704 128-124.769-30.216-176.176 158.216 83.179 158.216-83.179-30.217 176.176 128.001 124.769zM256 111.978l-111.731-58.74 21.338 124.415-90.393 88.111 124.92 18.152 55.866 113.198 55.868-113.198 124.918-18.152-90.394-88.111 21.339-124.415-111.731 58.74z" />
<glyph unicode="&#xe019;" d="M512 290.202l-176.89 25.704-79.11 160.291-79.108-160.291-176.892-25.704 128-124.769-30.216-176.176 158.216 83.179 158.216-83.179-30.217 176.176 128.001 124.769zM256 111.978l-0.471-0.248 0.471 285.384 55.868-113.198 124.918-18.152-90.394-88.111 21.339-124.415-111.731 58.74z" />
<glyph unicode="&#xe01a;" d="M512 290.202l-176.89 25.704-79.11 160.291-79.108-160.291-176.892-25.704 128-124.769-30.216-176.176 158.216 83.179 158.216-83.179-30.217 176.176 128.001 124.769z" />
<glyph unicode="&#xe01b;" d="M367.497 86.040c-9.476 1.494-9.692 27.327-9.692 27.327s27.844 27.328 33.912 64.076c16.326 0 26.407 39.069 10.082 52.814 0.681 14.47 20.984 113.588-81.799 113.588s-82.479-99.118-81.799-113.588c-16.327-13.745-6.244-52.814 10.081-52.814 6.067-36.748 33.913-64.076 33.913-64.076s-0.216-25.833-9.692-27.327c-30.524-4.816-144.503-54.658-144.503-109.313h384c0 54.655-113.979 104.497-144.503 109.313zM172.027 77.322c22.047 13.575 48.813 26.154 70.769 33.712-7.876 11.216-16.647 26.468-22.165 44.531-7.703 6.283-13.972 15.266-17.999 26.301-4.033 11.052-5.561 23.426-4.304 34.842 0.902 8.196 3.239 15.833 6.825 22.544-2.175 23.293-3.707 69.017 26.224 102.366 11.607 12.933 26.278 22.23 43.85 27.843-3.137 32.38-19.58 70.385-83.227 70.385-102.782 0-82.479-99.118-81.799-113.588-16.327-13.745-6.244-52.814 10.081-52.814 6.067-36.748 33.913-64.076 33.913-64.076s-0.216-25.833-9.692-27.327c-30.524-4.817-144.503-54.659-144.503-109.314h164.798c2.355 1.537 4.753 3.070 7.229 4.595z" />
<glyph unicode="&#xe01c;" d="M316.288 339.415c23.040-5.333 41.376-24.96 46.709-46.4 1.824-10.027 10.56-17.6 21.024-17.6 11.733 0 21.333 9.6 21.333 21.333 0 15.36-12.907 38.72-30.507 56.213-17.28 17.067-37.867 29.12-54.827 29.12-11.733 0-21.333-9.92-21.333-21.653 0.001-10.442 7.574-19.2 17.601-21.013zM23.061 59.735c-16.533-16.523-16.533-43.413 0-59.936 16.533-16.544 43.413-16.544 59.84 0l122.549 122.453c28.597-17.835 62.293-28.171 98.56-28.171 103.147 0 186.667 83.52 186.667 186.667s-83.52 186.667-186.667 186.667-186.667-83.52-186.667-186.667c0-36.16 10.357-69.973 28.171-98.56l-122.453-122.453zM170.688 280.748c0 73.6 59.744 133.333 133.333 133.333 73.6 0 133.333-59.733 133.333-133.333s-59.733-133.333-133.333-133.333c-73.589 0.011-133.333 59.744-133.333 133.333z" />
<glyph unicode="&#xe01d;" d="M449.152 92.746l-96.743 96.743c14.592 23.987 22.989 52.096 22.989 82.227 0 87.45-75.802 163.251-163.277 163.251-87.449 0-158.361-70.912-158.361-158.361 0-87.475 75.776-163.277 163.251-163.277 29.081 0 56.32 7.885 79.744 21.581l97.254-97.28c9.549-9.523 24.96-9.523 34.458 0l24.141 24.115c9.498 9.523 6.041 21.504-3.456 31.001zM102.502 276.606c0 60.544 49.075 109.645 109.619 109.645 60.569 0 114.534-53.965 114.534-114.534s-49.075-109.645-109.645-109.645-114.508 53.964-114.508 114.534z" />
<glyph unicode="&#xe01e;" d="M256 168.727v128c0 0 128-48 128-64 0-17.984-128-64-128-64zM192-23.273v160h32v-128h192v448h-192v-128h-32v160h320v-512h-320zM256 200.727h-256v64h256v-64z" />
<glyph unicode="&#xe01f;" d="M432-7.273h-352c-17.664 0-32 14.336-32 32v352c0 17.68 14.336 32 32 32h32v-16c0-26.512 21.488-48 48-48 26.496 0 48 21.488 48 48v16h96v-16c0-26.512 21.504-48 48-48s48 21.488 48 48v16h32c17.664 0 32-14.32 32-32v-352c0-17.664-14.336-32-32-32zM432 296.727h-352v-272h352v272zM160 216.727h-48v48h48v-48zM160 136.727h-48v48h48v-48zM160 56.727h-48v48h48v-48zM240 216.727h-48v48h48v-48zM240 136.727h-48v48h48v-48zM240 56.727h-48v48h48v-48zM320 216.727h-48v48h48v-48zM320 136.727h-48v48h48v-48zM320 56.727h-48v48h48v-48zM400 216.727h-48v48h48v-48zM400 136.727h-48v48h48v-48zM400 56.727h-48v48h48v-48zM351.504 360.727c-17.408 0-31.504 14.112-31.504 31.504v32.992c0 17.408 14.096 31.504 31.504 31.504s31.504-14.096 31.504-31.504v-32.992c0-17.392-14.096-31.504-31.504-31.504zM159.504 360.727c-17.408 0-31.504 14.112-31.504 31.504v32.992c0 17.408 14.096 31.504 31.504 31.504s31.504-14.096 31.504-31.504v-32.992c0-17.392-14.112-31.504-31.504-31.504z" />
<glyph unicode="&#xe020;" d="M255.502 487.809c-140.831 0-255.502-114.265-255.502-254.577 0-141.332 114.671-255.587 255.502-255.587 141.827 0 256.502 114.255 256.502 255.587-0.004 140.312-114.675 254.577-256.502 254.577zM343.040 415.17c26.15-13.025 76.445-43.097 75.438-45.097-2.007-2.007-51.306 26.051-76.445 37.076 19.104-18.033 65.382-66.147 62.365-68.151-2.014-1-51.302 51.111-77.452 70.161l-7.045 5.011c-175.892-84.982-153.265-324.714-57.586-409.966-27.607 3.816-54.948 10.421-81.592 19.811-66.373 103.175-43.558 313.464 115.039 389.148-177.193-52.798-214.63-257.704-162.871-368.804-17.568 8.796-34.669 18.947-51.186 30.399-37.352 115.48 6.175 304.029 208.019 344.429-207.21-10.428-274.275-184.631-247.091-313.733-5.219 4.646-10.315 9.39-15.268 14.203-10.81 22.729-18.425 47.258-22.306 73.011 16.093 116.255 97.566 241.545 281.651 235.527-130.765 30.075-229.342-32.072-273.606-123.276 13.076 43.093 36.209 80.186 68.396 110.251 52.313 34.082 123.723 48.118 208.22 22.054-52.299 29.071-100.591 32.071-143.831 23.053 18.097 8.015 37.216 15.025 57.327 20.053 36.219-3.014 77.459-17.043 120.709-53.128 7.038 0.993 55.33 18.033 55.33 15.036 0-3.004-28.167-12.032-35.212-15.036 17.101 0.993 58.344 3.004 58.344 0.993 0-1.997-56.334-6.004-57.337-6.004 29.177-6.014 75.448-17.039 74.441-20.047 0.001-1-49.291 9.012-76.451 13.026z" />
<glyph unicode="&#xe021;" d="M255.999 488.001c-140.982 0-255.273-114.291-255.273-255.274s114.289-255.273 255.271-255.273c140.983 0 255.273 114.289 255.273 255.273 0.003 140.983-114.287 255.274-255.271 255.274zM371.775 37.382h-40.33l-66.641 260.057c-5.607 21.728-8.916 35.076-9.921 40.045-3.309-15.679-6.4-29.025-9.274-40.045l-67.073-260.057h-42.705l-83.894 341.312h42.918l48.095-223.738c5.177-23.437 9.631-46.72 13.373-69.846 8.049 36.471 12.796 57.505 14.234 63.094l60.172 230.49h50.467l45.29-172.751c11.357-42.839 19.551-83.116 24.586-120.832 4.023 21.572 9.274 46.33 15.744 74.269l49.603 219.315h42.057l-86.701-341.313z" />
<glyph unicode="&#xe022;" d="M512 488.727h-384v-128c-46.496 0-128 0-128 0v-384h384v128h128v384zM320 40.727h-256v192h64v-128h192c0-28.624 0-64 0-64zM448 168.727h-256v192h256v-192z" />
<glyph unicode="&#xe023;" d="M416-23.273h-320c-17.68 0-32 14.304-32 31.936v400.224c0 17.648 14.32 31.936 32 31.936h96v-31.936h-80c-8.832 0-16-7.136-16-15.968v-368.288c0-8.816 7.168-15.968 16-15.968h288c8.848 0 16 7.152 16 15.968v368.288c0 8.832-7.152 15.968-16 15.968h-80v31.936h96c17.664 0 32-14.304 32-31.936v-400.224c0-17.632-14.336-31.936-32-31.936zM400 392.919v-368.288h-288v368.288h16v-64.88h256v64.88h16zM176 280.135h-16v-15.968h16v15.968zM176 248.199h-16v-15.968h16v15.968zM176 216.263h-16v-15.968h16v15.968zM176 184.327h-16v-15.968h16v15.968zM176 152.391h-16v-15.968h16v15.968zM176 120.439h-16v-15.968h16v15.968zM176 88.503h-16v-15.968h16v15.968zM352 280.135h-160v-15.968h160v15.968zM352 248.199h-160v-15.968h160v15.968zM352 216.263h-160v-15.968h160v15.968zM352 184.327h-160v-15.968h160v15.968zM352 152.391h-160v-15.968h160v15.968zM352 120.439h-160v-15.968h160v15.968zM352 88.503h-160v-15.968h160v15.968zM352 392.919c8.848 0 16-7.136 16-15.968 0-8.816 0-31.936 0-31.936h-224c0 0 0 23.12 0 31.936 0 8.832 7.152 15.968 16 15.968h48c0 0 0.192 20.384 0.192 46.336 0 26.944 20.8 49.472 47.808 49.472s48.528-23.68 48.528-49.648c0-27.936-0.528-46.16-0.528-46.16h48zM256 440.823c-8.848 0-16-7.136-16-15.968 0-8.816 7.152-15.968 16-15.968s16 7.152 16 15.968c0 8.832-7.152 15.968-16 15.968z" />
<glyph unicode="&#xe024;" d="M151.867 288.825c-10.885 0-19.554-5.115-25.959-15.33-6.405-10.21-9.615-23.729-9.615-40.556 0-17.078 3.21-30.572 9.615-40.497 6.405-9.945 14.809-14.882 25.191-14.882 10.708 0 19.21 4.825 25.477 14.479s9.423 23.060 9.423 40.187c0 17.866-3.038 31.769-9.132 41.708-6.095 9.925-14.42 14.882-24.999 14.882zM0.335 431.033v-391.813l298.068-62.498-0.001 512.005-298.068-57.694zM199.789 168.889c-12.593-16.576-29.017-24.886-49.29-24.886-19.751 0-35.825 8.039-48.266 24.094-12.421 16.079-18.649 37.007-18.649 62.813 0 27.249 6.306 49.29 18.939 66.117s29.366 25.25 50.191 25.25c19.673 0 35.594-8.039 47.729-24.153 12.155-16.113 18.23-37.346 18.23-63.71 0.020-27.092-6.287-48.94-18.88-65.516zM317.248 380.173v-100.15l34.998-22.036c0.921-0.271 2.924-0.29 3.845 0l150.627 101.554c0 12.017-11.21 20.633-17.536 20.633l-171.934-0.001zM317.248 242.662l31.941-21.942c4.5-3.308 9.925 0 9.925 0-5.406-3.308 147.628 98.343 147.628 98.343v-184.069c0-20.037-12.825-28.441-27.249-28.441l-162.265-0.004v136.113z" horiz-adv-x="507" />
<glyph unicode="&#xe025;" d="M437.024 51.735c-100-100-262.048-100-362.048 0-99.968 99.936-99.968 262.048 0 362.016 100 99.968 262.048 99.968 362.048 0 99.968-99.968 99.968-262.080 0-362.016zM298.176 295.287l-42.176 98.432v0.992l-42.176-99.424-116.8-0.352 89.728-99.072-35.84-114.144 105.088 62.016 104.096-63.008-33.856 115.168 88.704 99.072-116.768 0.32z" />
<glyph unicode="&#xe026;" d="M394.005 89.452c-5.269 24.512-42.667 55.808-103.339 64.768v22.293c17.749 17.216 34.667 45.632 34.667 85.717 0 48.492-17.322 87.83-69.333 87.83s-69.333-39.339-69.333-87.829c0-40.085 16.917-68.501 34.667-85.717v-22.293c-60.672-8.96-98.069-40.256-103.339-64.768l-0.662-0.001c0-0.64 0.235-1.344 0.427-2.005l1.899-3.861c10.88-14.571 60.245-32.192 136.341-32.192s125.461 17.621 136.363 32.213l1.899 3.861c0.192 0.661 0.427 1.344 0.427 2.005l-0.684 0.001zM500.715 173.506c-4.864 22.656-39.381 51.52-95.381 59.797l-0.001 20.544c16.405 15.893 32 42.133 32 79.125 0 44.8-16 81.088-64 81.088-40.064 0-49.963-7.253-55.317-46.059 26.005-20.203 40.235-55.595 40.235-103.765 0-48.619-10.581-75.072-27.584-95.509 21.333 0 49.984-27.712 69.952-43.84 72.064 1.835 89.067 30.464 98.581 43.2l1.749 3.541c0.171 0.619 0.384 1.259 0.384 1.856h-0.618zM138.667 414.060c-48 0-64-36.288-64-81.088 0-36.992 15.595-63.232 32-79.125v-20.565c-56-8.277-90.517-37.141-95.381-59.797l-0.619-0.001c0-0.597 0.213-1.237 0.384-1.856l1.749-3.52c9.515-12.757 26.539-41.365 98.603-43.2 19.946 16.107 48.597 43.819 69.93 43.819-17.024 20.437-27.584 46.869-27.584 95.509 0 48.171 14.251 83.563 40.256 103.765-5.354 38.806-15.274 46.059-55.338 46.059z" />
<glyph unicode="&#xe600;" d="M42.667 446.060v-426.667c0-23.573 19.093-42.667 42.667-42.667h357.333c14.72 0 26.667 11.947 26.667 26.667s-11.947 26.667-26.667 26.667h-325.334c-11.733 0-21.333 9.6-21.333 21.333s9.6 21.333 21.333 21.333h309.333c23.573 0 42.667 19.093 42.667 42.667v330.667c0 23.573-19.093 42.667-42.667 42.667h-149.333v-191.893c0-2.773-1.067-5.547-3.093-7.68-4.16-4.16-10.987-4.16-15.147 0-2.773 2.89-45.76 38.613-45.76 38.613s-42.987-35.733-45.76-38.613c-4.16-4.16-10.987-4.16-15.147 0-2.026 2.133-3.093 4.906-3.093 7.68v191.893h-64c-23.573 0-42.666-19.093-42.666-42.667z" />
<glyph unicode="&#xe601;" d="M400 24.727h-256v352h112v-146l56.656 43.008 55.344-43.008v146h64v-320c0-17.664-14.336-32-32-32zM312.656 294.727l-40.656-32v130h80v-130l-39.344 32zM96 408.727v-16c0-8.832 7.168-16 16-16h16v-352h-16c-17.664 0-32 14.336-32 32v352c0 17.664 14.336 32 32 32h288c11.808 0 22.016-6.464 27.568-16h-315.568c-8.832 0-16-7.152-16-16z" />
<glyph unicode="&#xe602;" d="M464-23.273h-336v512h160v-288l48 64h32l48-64v288h48c8.848 0 16-7.168 16-16v-480c0-8.848-7.152-16-16-16zM32-7.273v480c0 8.832 7.152 16 16 16h48v-512h-48c-8.848 0-16 7.152-16 16z" />
<glyph unicode="&#xe603;" d="M224 91.472l-102.627 118.627 29.254 29.255 73.373-57.372 137.372 121.372 29.256-29.254zM415.886 424.727c0.039-0.033 0.081-0.075 0.114-0.115v-383.771c-0.033-0.039-0.075-0.081-0.114-0.114h-319.772c-0.040 0.033-0.081 0.075-0.114 0.114v383.772c0.033 0.040 0.075 0.081 0.115 0.114h-64.115v-384c0-35.2 28.8-64 64-64h320c35.2 0 64 28.8 64 64v384h-64.114zM320 424.727v32c0 17.673-14.327 32-32 32h-64c-17.673 0-32-14.327-32-32v-32h-64v-64h256v64h-64zM288 424.727h-64v32h64v-32z" />
<glyph unicode="&#xe604;" d="M368 360.727h32c8.848 0 16 7.168 16 16v96c0 8.832-7.152 16-16 16h-32c-8.848 0-16-7.168-16-16v-96c0-8.832 7.152-16 16-16zM112 360.727h32c8.832 0 16 7.168 16 16v96c0 8.832-7.168 16-16 16h-32c-8.832 0-16-7.168-16-16v-96c0-8.832 7.168-16 16-16zM480 424.727h-32v-80c0-8.832-7.152-16-16-16h-96c-8.848 0-16 7.168-16 16v80h-128v-80c0-8.832-7.168-16-16-16h-96c-8.832 0-16 7.168-16 16v80h-32c-17.664 0-32-14.336-32-32v-384c0-17.664 14.336-32 32-32h448c17.664 0 32 14.336 32 32v384c0 17.664-14.336 32-32 32zM480 21.735c0-8.848-7.152-16-16-16h-416c-8.832 0-16 7.152-16 16v256c0 8.832 7.168 16 16 16h416c8.848 0 16-7.168 16-16v-256zM294.8 29.735h-46.096v173.744c-16.848-15.744-36.688-27.392-59.552-34.944v41.84c12.032 3.936 25.104 11.392 39.216 22.4 14.112 10.992 23.792 23.808 29.040 38.464h37.408v-241.504z" />
<glyph unicode="&#xe605;" d="M368 360.727h32c8.848 0 16 7.168 16 16v96c0 8.832-7.152 16-16 16h-32c-8.848 0-16-7.168-16-16v-96c0-8.832 7.152-16 16-16zM112 360.727h32c8.832 0 16 7.168 16 16v96c0 8.832-7.168 16-16 16h-32c-8.832 0-16-7.168-16-16v-96c0-8.832 7.168-16 16-16zM480 424.727h-32v-80c0-8.832-7.152-16-16-16h-96c-8.848 0-16 7.168-16 16v80h-128v-80c0-8.832-7.168-16-16-16h-96c-8.832 0-16 7.168-16 16v80h-32c-17.664 0-32-14.336-32-32v-384c0-17.664 14.336-32 32-32h448c17.664 0 32 14.336 32 32v384c0 17.664-14.336 32-32 32zM480 21.735c0-8.848-7.152-16-16-16h-416c-8.832 0-16 7.152-16 16v256c0 8.832 7.168 16 16 16h416c8.848 0 16-7.168 16-16v-256zM332.528 72.535v-42.816h-161.6c1.744 16.192 7.008 31.536 15.744 46.016 8.752 14.496 26.032 33.712 51.84 57.664 20.768 19.36 33.52 32.48 38.224 39.376 6.336 9.52 9.52 18.928 9.52 28.224 0 10.288-2.768 18.176-8.288 23.696-5.536 5.52-13.152 8.288-22.896 8.288-9.632 0-17.28-2.896-22.976-8.688s-8.976-15.424-9.84-28.88l-45.936 4.592c2.736 25.376 11.328 43.584 25.76 54.64s32.48 16.576 54.144 16.576c23.712 0 42.368-6.4 55.936-19.2s20.336-28.704 20.336-47.744c0-10.832-1.936-21.136-5.824-30.928-3.872-9.792-10.032-20.048-18.448-30.768-5.584-7.104-15.648-17.328-30.192-30.672s-23.76-22.208-27.648-26.576c-3.888-4.384-7.024-8.656-9.44-12.816h91.584z" />
<glyph unicode="&#xe606;" d="M368.012 360.723h32.001c8.849 0 16 7.168 16 16.001v96.003c0 8.832-7.152 16-16 16h-32.001c-8.849 0-16-7.168-16-16v-96.003c0-8.833 7.152-16.001 16-16.001zM112.004 360.723h32.001c8.833 0 16 7.168 16 16.001v96.003c0 8.832-7.168 16-16 16h-32.001c-8.832 0-16.001-7.168-16.001-16v-96.003c0-8.833 7.168-16.001 16.001-16.001zM480.015 424.725h-32.001v-80.002c0-8.832-7.152-16-16-16h-96.003c-8.849 0-16 7.168-16 16v80.002h-128.004v-80.002c0-8.832-7.168-16-16-16h-96.003c-8.832 0-16.001 7.168-16.001 16v80.002h-32.001c-17.665 0-32.001-14.337-32.001-32.001v-383.996c0-17.664 14.336-32.001 32.001-32.001h448.014c17.664 0 32.001 14.337 32.001 32.001v383.996c0 17.664-14.337 32.001-32.001 32.001zM480.015 21.72c0-8.849-7.152-16-16-16h-416.013c-8.832 0-16.001 7.152-16.001 16v255.992c0 8.832 7.168 16 16.001 16h416.013c8.849 0 16-7.168 16-16v-255.992zM175.206 93.53l44.626 5.424c1.424-11.377 5.248-20.081 11.488-26.081 6.24-6.032 13.776-9.024 22.641-9.024 9.537 0 17.537 3.616 24.049 10.832 6.496 7.216 9.76 16.961 9.76 29.201 0 11.601-3.12 20.784-9.361 27.569s-13.841 10.176-22.8 10.176c-5.92 0-12.976-1.152-21.168-3.44l5.088 37.569c12.464-0.336 22.001 2.368 28.561 8.128 6.56 5.728 9.841 13.361 9.841 22.88 0 8.096-2.416 14.545-7.216 19.361-4.832 4.816-11.216 7.216-19.201 7.216-7.872 0-14.608-2.736-20.177-8.209s-8.976-13.457-10.177-23.952l-42.498 7.216c2.96 14.544 7.408 26.161 13.376 34.865 5.952 8.689 14.273 15.52 24.945 20.496 10.656 4.976 22.608 7.472 35.841 7.472 22.64 0 40.801-7.216 54.466-21.665 11.264-11.809 16.897-25.153 16.897-40.033 0-21.104-11.536-37.953-34.609-50.529 13.776-2.96 24.801-9.569 33.057-19.856 8.257-10.288 12.385-22.688 12.385-37.249 0-21.104-7.712-39.105-23.137-53.969-15.425-14.897-34.609-22.32-57.586-22.32-21.776 0-39.825 6.256-54.145 18.784-14.337 12.529-22.656 28.897-24.945 49.137z" />
<glyph unicode="&#xe607;" d="M368.012 360.723h32.001c8.849 0 16 7.168 16 16.001v96.003c0 8.832-7.152 16-16 16h-32.001c-8.849 0-16-7.168-16-16v-96.003c0-8.833 7.152-16.001 16-16.001zM112.004 360.723h32.001c8.833 0 16 7.168 16 16.001v96.003c0 8.832-7.168 16-16 16h-32.001c-8.832 0-16.001-7.168-16.001-16v-96.003c0-8.833 7.168-16.001 16.001-16.001zM480.015 424.725h-32.001v-80.002c0-8.832-7.152-16-16-16h-96.003c-8.849 0-16 7.168-16 16v80.002h-128.004v-80.002c0-8.832-7.168-16-16-16h-96.003c-8.832 0-16.001 7.168-16.001 16v80.002h-32.001c-17.665 0-32.001-14.337-32.001-32.001v-383.996c0-17.664 14.336-32.001 32.001-32.001h448.014c17.664 0 32.001 14.337 32.001 32.001v383.996c0 17.664-14.337 32.001-32.001 32.001zM480.015 21.72c0-8.849-7.152-16-16-16h-416.013c-8.832 0-16.001 7.152-16.001 16v255.992c0 8.832 7.168 16 16.001 16h416.013c8.849 0 16-7.168 16-16v-255.992zM267.24 29.72v48.401h-98.435v40.353l104.339 152.741h38.721v-152.581h29.857v-40.514h-29.857v-48.401h-44.625zM267.24 118.636v82.195l-55.298-82.195h55.298z" />
<glyph unicode="&#xe608;" d="M368 360.727h32c8.848 0 16 7.168 16 16v96c0 8.832-7.152 16-16 16h-32c-8.848 0-16-7.168-16-16v-96c0-8.832 7.152-16 16-16zM112 360.727h32c8.832 0 16 7.168 16 16v96c0 8.832-7.168 16-16 16h-32c-8.832 0-16-7.168-16-16v-96c0-8.832 7.168-16 16-16zM480 424.727h-32v-80c0-8.832-7.152-16-16-16h-96c-8.848 0-16 7.168-16 16v80h-128v-80c0-8.832-7.168-16-16-16h-96c-8.832 0-16 7.168-16 16v80h-32c-17.664 0-32-14.336-32-32v-384c0-17.664 14.336-32 32-32h448c17.664 0 32 14.336 32 32v384c0 17.664-14.336 32-32 32zM480 21.735c0-8.848-7.152-16-16-16h-416c-8.832 0-16 7.152-16 16v256c0 8.832 7.168 16 16 16h416c8.848 0 16-7.168 16-16v-256zM177.504 91.575l45.936 4.768c1.312-10.384 5.184-18.624 11.648-24.688 6.448-6.080 13.888-9.104 22.32-9.104 9.632 0 17.76 3.904 24.448 11.728 6.656 7.808 10 19.616 10 35.344 0 14.768-3.312 25.84-9.92 33.232-6.624 7.376-15.232 11.072-25.84 11.072-13.232 0-25.104-5.856-35.616-17.552l-37.408 5.408 23.632 125.184h121.904v-43.152h-86.96l-7.216-40.848c10.288 5.136 20.784 7.712 31.504 7.712 20.448 0 37.776-7.44 52.016-22.32 14.208-14.88 21.312-34.176 21.312-57.92 0-19.792-5.728-37.472-17.216-53.008-15.648-21.216-37.36-31.808-65.12-31.808-22.224 0-40.32 5.952-54.32 17.872s-22.384 27.952-25.104 48.080z" />
<glyph unicode="&#xe609;" d="M368 360.727h32c8.848 0 16 7.152 16 16v96c0 8.816-7.152 16-16 16h-32c-8.848 0-16-7.184-16-16v-96c0-8.848 7.152-16 16-16zM112 360.727h32c8.832 0 16 7.152 16 16v96c0 8.816-7.168 16-16 16h-32c-8.832 0-16-7.184-16-16v-96c0-8.848 7.168-16 16-16zM480 424.727h-32v-80c0-8.848-7.152-16-16-16h-96c-8.848 0-16 7.152-16 16v80h-128v-80c0-8.848-7.168-16-16-16h-96c-8.832 0-16 7.152-16 16v80h-32c-17.664 0-32-14.336-32-32v-384c0-17.664 14.336-32 32-32h448c17.664 0 32 14.336 32 32v384c0 17.664-14.336 32-32 32zM480 21.735c0-8.848-7.152-16-16-16h-416c-8.832 0-16 7.152-16 16v256c0 8.816 7.168 16 16 16h416c8.848 0 16-7.184 16-16v-256zM333.024 211.351l-44.624-4.928c-1.104 9.184-3.936 15.968-8.528 20.336s-10.56 6.56-17.888 6.56c-9.728 0-17.968-4.368-24.688-13.12-6.736-8.752-10.976-26.96-12.72-54.64 11.488 13.568 25.76 20.336 42.832 20.336 19.232 0 35.728-7.328 49.456-21.984s20.592-33.584 20.592-56.768c0-24.608-7.216-44.352-21.664-59.216-14.432-14.896-32.992-22.32-55.616-22.32-24.288 0-44.256 9.424-59.888 28.304-15.648 18.864-23.456 49.792-23.456 92.768 0 44.080 8.144 75.856 24.432 95.328s37.472 29.2 63.504 29.2c18.256 0 33.376-5.12 45.36-15.344 11.984-10.208 19.616-25.056 22.896-44.512zM228.512 110.775c0-14.992 3.456-26.544 10.336-34.704 6.912-8.144 14.784-12.224 23.632-12.224 8.528 0 15.648 3.328 21.344 10 5.664 6.672 8.528 17.616 8.528 32.816 0 15.648-3.072 27.088-9.184 34.368-6.144 7.28-13.776 10.912-22.976 10.912-8.88 0-16.352-3.472-22.48-10.416s-9.2-17.184-9.2-30.752z" />
<glyph unicode="&#xe60a;" d="M368 360.727h32c8.848 0 16 7.152 16 16v96c0 8.816-7.152 16-16 16h-32c-8.848 0-16-7.184-16-16v-96c0-8.848 7.152-16 16-16zM112 360.727h32c8.832 0 16 7.152 16 16v96c0 8.816-7.168 16-16 16h-32c-8.832 0-16-7.184-16-16v-96c0-8.848 7.168-16 16-16zM480 424.727h-32v-80c0-8.848-7.152-16-16-16h-96c-8.848 0-16 7.152-16 16v80h-128v-80c0-8.848-7.168-16-16-16h-96c-8.832 0-16 7.152-16 16v80h-32c-17.664 0-32-14.336-32-32v-384c0-17.664 14.336-32 32-32h448c17.664 0 32 14.336 32 32v384c0 17.664-14.336 32-32 32zM480 21.735c0-8.848-7.152-16-16-16h-416c-8.832 0-16 7.152-16 16v256c0 8.816 7.168 16 16 16h416c8.848 0 16-7.184 16-16v-256zM176.848 224.135v42.816h157.664v-33.472c-13.008-12.8-26.256-31.168-39.696-55.12s-23.696-49.408-30.768-76.368c-7.040-26.96-10.528-51.040-10.4-72.272h-44.464c0.768 33.248 7.632 67.152 20.592 101.712s30.272 65.456 51.92 92.688h-104.848z" />
<glyph unicode="&#xe60b;" d="M368 360.727h32c8.848 0 16 7.168 16 16v96c0 8.832-7.152 16-16 16h-32c-8.848 0-16-7.168-16-16v-96c0-8.832 7.152-16 16-16zM112 360.727h32c8.832 0 16 7.168 16 16v96c0 8.832-7.168 16-16 16h-32c-8.832 0-16-7.168-16-16v-96c0-8.832 7.168-16 16-16zM480 424.727h-32v-80c0-8.832-7.152-16-16-16h-96c-8.848 0-16 7.168-16 16v80h-128v-80c0-8.832-7.168-16-16-16h-96c-8.832 0-16 7.168-16 16v80h-32c-17.664 0-32-14.336-32-32v-384c0-17.664 14.336-32 32-32h448c17.664 0 32 14.336 32 32v384c0 17.664-14.336 32-32 32zM480 21.735c0-8.848-7.152-16-16-16h-416c-8.832 0-16 7.152-16 16v256c0 8.832 7.168 16 16 16h416c8.848 0 16-7.168 16-16v-256zM216.368 159.495c-11.92 5.024-20.592 11.952-26 20.752-5.424 8.8-8.128 18.448-8.128 28.96 0 17.936 6.256 32.752 18.784 44.464s30.336 17.552 53.408 17.552c22.864 0 40.608-5.856 53.232-17.552 12.64-11.696 18.96-26.528 18.96-44.464 0-11.152-2.912-21.072-8.688-29.776-5.808-8.688-13.952-15.328-24.448-19.936 13.344-5.36 23.488-13.184 30.432-23.456 6.944-10.288 10.416-22.144 10.416-35.6 0-22.224-7.088-40.272-21.248-54.16-14.176-13.888-33.008-20.832-56.528-20.832-21.872 0-40.080 5.728-54.624 17.232-17.168 13.552-25.76 32.16-25.76 55.776 0 13.008 3.232 24.96 9.68 35.84 6.464 10.896 16.624 19.296 30.512 25.2zM221.632 102.903c0-12.688 3.248-22.592 9.76-29.696 6.496-7.104 14.624-10.656 24.352-10.656 9.52 0 17.392 3.424 23.632 10.256 6.24 6.848 9.344 16.704 9.344 29.632 0 11.264-3.168 20.304-9.504 27.136-6.352 6.832-14.384 10.256-24.128 10.256-11.264 0-19.664-3.888-25.184-11.648s-8.272-16.208-8.272-25.28zM225.888 205.927c0-9.184 2.592-16.352 7.792-21.488 5.184-5.136 12.112-7.712 20.752-7.712 8.752 0 15.744 2.592 21.008 7.792 5.248 5.184 7.872 12.384 7.872 21.568 0 8.64-2.592 15.552-7.792 20.752-5.184 5.184-12.048 7.792-20.576 7.792-8.864 0-15.92-2.624-21.168-7.872s-7.888-12.192-7.888-20.832z" />
<glyph unicode="&#xe60c;" d="M368 360.727h32c8.848 0 16 7.168 16 16v96c0 8.832-7.152 16-16 16h-32c-8.848 0-16-7.168-16-16v-96c0-8.832 7.152-16 16-16zM112 360.727h32c8.832 0 16 7.168 16 16v96c0 8.832-7.168 16-16 16h-32c-8.832 0-16-7.168-16-16v-96c0-8.832 7.168-16 16-16zM480 424.727h-32v-80c0-8.832-7.152-16-16-16h-96c-8.848 0-16 7.168-16 16v80h-128v-80c0-8.832-7.168-16-16-16h-96c-8.832 0-16 7.168-16 16v80h-32c-17.664 0-32-14.336-32-32v-384c0-17.664 14.336-32 32-32h448c17.664 0 32 14.336 32 32v384c0 17.664-14.336 32-32 32zM480 21.735c0-8.848-7.152-16-16-16h-416c-8.832 0-16 7.152-16 16v256c0 8.832 7.168 16 16 16h416c8.848 0 16-7.168 16-16v-256zM177.824 85.351l44.624 4.912c1.088-9.072 3.936-15.792 8.528-20.176s10.672-6.56 18.208-6.56c9.52 0 17.616 4.368 24.288 13.12s10.944 26.912 12.8 54.464c-11.6-13.456-26.080-20.176-43.472-20.176-18.928 0-35.248 7.312-48.976 21.904-13.728 14.608-20.592 33.616-20.592 57.008 0 24.384 7.248 44.048 21.744 58.992 14.48 14.928 32.944 22.384 55.36 22.384 24.384 0 44.4-9.44 60.032-28.304 15.648-18.88 23.472-49.904 23.472-93.104 0-43.968-8.16-75.68-24.432-95.152-16.32-19.472-37.536-29.2-63.664-29.2-18.816 0-34.016 5.008-45.616 15.008-11.584 10-19.024 24.96-22.304 44.88zM282.16 186.071c0 14.88-3.408 26.416-10.256 34.624-6.832 8.208-14.736 12.304-23.696 12.304-8.528 0-15.616-3.36-21.248-10.080-5.632-6.736-8.448-17.744-8.448-33.056 0-15.536 3.056-26.944 9.184-34.208 6.128-7.28 13.776-10.928 22.976-10.928 8.864 0 16.32 3.504 22.4 10.496 6.048 7.008 9.088 17.296 9.088 30.848z" />
<glyph unicode="&#xe60d;" d="M368.012 360.723h32.001c8.849 0 16 7.168 16 16.001v96.003c0 8.832-7.152 16-16 16h-32.001c-8.849 0-16-7.168-16-16v-96.003c0-8.833 7.152-16.001 16-16.001zM112.004 360.723h32.001c8.833 0 16 7.168 16 16.001v96.003c0 8.832-7.168 16-16 16h-32.001c-8.832 0-16.001-7.168-16.001-16v-96.003c0-8.833 7.168-16.001 16.001-16.001zM480.015 424.725h-32.001v-80.002c0-8.832-7.152-16-16-16h-96.003c-8.849 0-16 7.168-16 16v80.002h-128.004v-80.002c0-8.832-7.168-16-16-16h-96.003c-8.832 0-16.001 7.168-16.001 16v80.002h-32.001c-17.665 0-32.001-14.337-32.001-32.001v-383.996c0-17.664 14.336-32.001 32.001-32.001h448.014c17.664 0 32.001 14.337 32.001 32.001v383.996c0 17.664-14.337 32.001-32.001 32.001zM480.015 21.72c0-8.849-7.152-16-16-16h-416.013c-8.832 0-16.001 7.152-16.001 16v255.992c0 8.832 7.168 16 16.001 16h416.013c8.849 0 16-7.168 16-16v-255.992zM195.798 29.72h-46.097v173.75c-16.849-15.745-36.689-27.393-59.554-34.945v41.841c12.032 3.936 25.105 11.392 39.217 22.4 14.113 10.993 23.792 23.809 29.041 38.465h37.409v-241.512zM342.651 271.216c23.296 0 41.522-8.321 54.642-24.945 15.632-19.681 23.457-52.338 23.457-97.955 0-45.49-7.872-78.21-23.632-98.115-13.009-16.401-31.169-24.593-54.466-24.593-23.409 0-42.289 8.993-56.61 26.993-14.337 17.985-21.488 50.065-21.488 96.227 0 45.281 7.872 77.875 23.632 97.779 13.009 16.416 31.169 24.609 54.466 24.609zM342.651 232.991c-5.584 0-10.56-1.776-14.928-5.328-4.384-3.552-7.776-9.921-10.192-19.105-3.168-11.921-4.752-32.001-4.752-60.21s1.424-47.618 4.272-58.162 6.416-17.584 10.752-21.072c4.32-3.504 9.264-5.248 14.849-5.248s10.545 1.776 14.928 5.328c4.368 3.568 7.76 9.921 10.192 19.104 3.152 11.808 4.752 31.841 4.752 60.050s-1.424 47.601-4.272 58.162c-2.848 10.544-6.416 17.601-10.752 21.152-4.32 3.552-9.264 5.328-14.849 5.328z" />
<glyph unicode="&#xe60e;" d="M368 360.727h32c8.848 0 16 7.152 16 16v96c0 8.816-7.152 16-16 16h-32c-8.848 0-16-7.184-16-16v-96c0-8.848 7.152-16 16-16zM112 360.727h32c8.832 0 16 7.152 16 16v96c0 8.816-7.168 16-16 16h-32c-8.832 0-16-7.184-16-16v-96c0-8.848 7.168-16 16-16zM480 424.727h-32v-80c0-8.848-7.152-16-16-16h-96c-8.848 0-16 7.152-16 16v80h-128v-80c0-8.848-7.168-16-16-16h-96c-8.832 0-16 7.152-16 16v80h-32c-17.664 0-32-14.336-32-32v-384c0-17.664 14.336-32 32-32h448c17.664 0 32 14.336 32 32v384c0 17.664-14.336 32-32 32zM480 21.735c0-8.848-7.152-16-16-16h-416c-8.832 0-16 7.152-16 16v256c0 8.816 7.168 16 16 16h416c8.848 0 16-7.184 16-16v-256zM201.36 29.735h-46.112v173.744c-16.848-15.744-36.688-27.392-59.552-34.944v41.84c12.032 3.936 25.104 11.392 39.2 22.4 14.128 10.992 23.792 23.808 29.040 38.464h37.408v-241.504zM425.968 72.535v-42.816h-161.6c1.728 16.192 6.992 31.536 15.744 46.016 8.736 14.496 26.016 33.712 51.84 57.664 20.768 19.36 33.52 32.48 38.224 39.376 6.336 9.52 9.52 18.928 9.52 28.224 0 10.288-2.768 18.176-8.288 23.696-5.536 5.52-13.152 8.288-22.896 8.288-9.632 0-17.28-2.896-22.976-8.688s-8.976-15.424-9.84-28.88l-45.936 4.592c2.736 25.376 11.312 43.584 25.744 54.64s32.496 16.576 54.16 16.576c23.712 0 42.368-6.4 55.936-19.2s20.336-28.704 20.336-47.744c0-10.832-1.936-21.136-5.824-30.928-3.872-9.792-10.032-20.048-18.448-30.768-5.584-7.104-15.648-17.328-30.192-30.672s-23.76-22.208-27.648-26.576c-3.888-4.384-7.024-8.656-9.44-12.816h91.584z" />
<glyph unicode="&#xe60f;" d="M368.012 360.723h32.001c8.849 0 16 7.168 16 16.001v96.003c0 8.832-7.152 16-16 16h-32.001c-8.849 0-16-7.168-16-16v-96.003c0-8.833 7.152-16.001 16-16.001zM112.004 360.723h32.001c8.833 0 16 7.168 16 16.001v96.003c0 8.832-7.168 16-16 16h-32.001c-8.832 0-16.001-7.168-16.001-16v-96.003c0-8.833 7.168-16.001 16.001-16.001zM480.015 424.725h-32.001v-80.002c0-8.832-7.152-16-16-16h-96.003c-8.849 0-16 7.168-16 16v80.002h-128.004v-80.002c0-8.832-7.168-16-16-16h-96.003c-8.832 0-16.001 7.168-16.001 16v80.002h-32.001c-17.665 0-32.001-14.337-32.001-32.001v-383.996c0-17.664 14.336-32.001 32.001-32.001h448.014c17.664 0 32.001 14.337 32.001 32.001v383.996c0 17.664-14.337 32.001-32.001 32.001zM480.015 21.72c0-8.849-7.152-16-16-16h-416.013c-8.832 0-16.001 7.152-16.001 16v255.992c0 8.832 7.168 16 16.001 16h416.013c8.849 0 16-7.168 16-16v-255.992zM210.647 29.72h-46.097v173.75c-16.849-15.745-36.689-27.393-59.554-34.945v41.841c12.032 3.936 25.105 11.392 39.217 22.4 14.113 10.993 23.792 23.809 29.041 38.465h37.409v-241.512zM379.004 29.72h-46.113v173.75c-16.849-15.745-36.689-27.393-59.554-34.945v41.841c12.033 3.936 25.105 11.392 39.201 22.4 14.128 10.993 23.793 23.809 29.041 38.465h37.409v-241.512z" />
<glyph unicode="&#xe610;" d="M368 360.727h32c8.848 0 16 7.152 16 16v96c0 8.816-7.152 16-16 16h-32c-8.848 0-16-7.184-16-16v-96c0-8.848 7.152-16 16-16zM112 360.727h32c8.832 0 16 7.152 16 16v96c0 8.816-7.168 16-16 16h-32c-8.832 0-16-7.184-16-16v-96c0-8.848 7.168-16 16-16zM480 424.727h-32v-80c0-8.848-7.152-16-16-16h-96c-8.848 0-16 7.152-16 16v80h-128v-80c0-8.848-7.168-16-16-16h-96c-8.832 0-16 7.152-16 16v80h-32c-17.664 0-32-14.336-32-32v-384c0-17.664 14.336-32 32-32h448c17.664 0 32 14.336 32 32v384c0 17.664-14.336 32-32 32zM480 21.735c0-8.848-7.152-16-16-16h-416c-8.832 0-16 7.152-16 16v256c0 8.816 7.168 16 16 16h416c8.848 0 16-7.184 16-16v-256zM201.36 29.735h-46.112v173.744c-16.848-15.744-36.688-27.392-59.552-34.944v41.84c12.032 3.936 25.104 11.392 39.2 22.4 14.128 10.992 23.792 23.808 29.040 38.464h37.408v-241.504zM268.624 93.543l44.624 5.424c1.424-11.376 5.248-20.080 11.504-26.080 6.224-6.032 13.776-9.024 22.624-9.024 9.536 0 17.536 3.616 24.048 10.832 6.496 7.216 9.76 16.96 9.76 29.2 0 11.6-3.12 20.784-9.36 27.568s-13.84 10.176-22.8 10.176c-5.904 0-12.976-1.152-21.168-3.44l5.072 37.568c12.464-0.336 22 2.368 28.56 8.128 6.56 5.728 9.84 13.36 9.84 22.88 0 8.096-2.416 14.544-7.216 19.36-4.832 4.816-11.216 7.216-19.2 7.216-7.872 0-14.608-2.736-20.176-8.208-5.6-5.472-8.992-13.456-10.192-23.952l-42.48 7.216c2.96 14.544 7.408 26.16 13.376 34.864 5.952 8.688 14.272 15.52 24.944 20.496 10.656 4.976 22.608 7.472 35.84 7.472 22.64 0 40.8-7.216 54.464-21.664 11.264-11.808 16.896-25.152 16.896-40.032 0-21.104-11.536-37.952-34.608-50.528 13.776-2.96 24.8-9.568 33.056-19.856s12.384-22.688 12.384-37.248c0-21.104-7.712-39.104-23.136-53.968-15.424-14.896-34.608-22.32-57.584-22.32-21.776 0-39.824 6.256-54.16 18.784-14.304 12.528-22.592 28.896-24.912 49.136z" />
<glyph unicode="&#xe611;" d="M368 360.727h32c8.848 0 16 7.152 16 16v96c0 8.816-7.152 16-16 16h-32c-8.848 0-16-7.184-16-16v-96c0-8.848 7.152-16 16-16zM112 360.727h32c8.832 0 16 7.152 16 16v96c0 8.816-7.168 16-16 16h-32c-8.832 0-16-7.184-16-16v-96c0-8.848 7.168-16 16-16zM480 424.727h-32v-80c0-8.848-7.152-16-16-16h-96c-8.848 0-16 7.152-16 16v80h-128v-80c0-8.848-7.168-16-16-16h-96c-8.832 0-16 7.152-16 16v80h-32c-17.664 0-32-14.336-32-32v-384c0-17.664 14.336-32 32-32h448c17.664 0 32 14.336 32 32v384c0 17.664-14.336 32-32 32zM480 21.735c0-8.848-7.152-16-16-16h-416c-8.832 0-16 7.152-16 16v256c0 8.816 7.168 16 16 16h416c8.848 0 16-7.184 16-16v-256zM201.36 29.735h-46.112v173.744c-16.848-15.744-36.688-27.392-59.552-34.944v41.84c12.032 3.936 25.104 11.392 39.2 22.4 14.128 10.992 23.792 23.808 29.040 38.464h37.408v-241.504zM360.672 29.735v48.4h-98.432v40.352l104.336 152.736h38.72v-152.576h29.856v-40.512h-29.856v-48.4h-44.624zM360.672 118.647v82.192l-55.296-82.192h55.296z" />
<glyph unicode="&#xe612;" d="M368 360.727h32c8.848 0 16 7.168 16 16v96c0 8.832-7.152 16-16 16h-32c-8.848 0-16-7.168-16-16v-96c0-8.832 7.152-16 16-16zM112 360.727h32c8.832 0 16 7.168 16 16v96c0 8.832-7.168 16-16 16h-32c-8.832 0-16-7.168-16-16v-96c0-8.832 7.168-16 16-16zM480 424.727h-32v-80c0-8.832-7.152-16-16-16h-96c-8.848 0-16 7.168-16 16v80h-128v-80c0-8.832-7.168-16-16-16h-96c-8.832 0-16 7.168-16 16v80h-32c-17.664 0-32-14.336-32-32v-384c0-17.664 14.336-32 32-32h448c17.664 0 32 14.336 32 32v384c0 17.664-14.336 32-32 32zM480 21.719c0-8.848-7.152-16-16-16h-416c-8.832 0-16 7.152-16 16v256c0 8.832 7.168 16 16 16h416c8.848 0 16-7.168 16-16v-256zM201.36 29.719h-46.096v173.76c-16.848-15.744-36.688-27.408-59.552-34.96v41.824c12.032 3.936 25.104 11.408 39.216 22.4s23.792 23.808 29.040 38.464h37.408v-241.488zM270.944 91.575l45.936 4.768c1.312-10.384 5.184-18.624 11.648-24.688 6.448-6.080 13.888-9.104 22.32-9.104 9.632 0 17.76 3.904 24.448 11.728 6.656 7.808 10 19.616 10 35.36 0 14.752-3.312 25.824-9.92 33.216-6.624 7.376-15.232 11.056-25.84 11.056-13.232 0-25.104-5.84-35.616-17.552l-37.408 5.424 23.632 125.168h121.904v-43.152h-86.96l-7.216-40.848c10.288 5.136 20.784 7.696 31.504 7.696 20.448 0 37.776-7.44 52.016-22.32 14.208-14.88 21.312-34.176 21.312-57.904 0-19.792-5.728-37.472-17.216-53.008-15.648-21.216-37.36-31.808-65.12-31.808-22.224 0-40.32 5.952-54.32 17.872s-22.384 27.968-25.104 48.096z" />
<glyph unicode="&#xe613;" d="M368 360.727h32c8.848 0 16 7.168 16 16v96c0 8.832-7.152 16-16 16h-32c-8.848 0-16-7.168-16-16v-96c0-8.832 7.152-16 16-16zM112 360.727h32c8.832 0 16 7.168 16 16v96c0 8.832-7.168 16-16 16h-32c-8.832 0-16-7.168-16-16v-96c0-8.832 7.168-16 16-16zM480 424.727h-32v-80c0-8.832-7.152-16-16-16h-96c-8.848 0-16 7.168-16 16v80h-128v-80c0-8.832-7.168-16-16-16h-96c-8.832 0-16 7.168-16 16v80h-32c-17.664 0-32-14.336-32-32v-384c0-17.664 14.336-32 32-32h448c17.664 0 32 14.336 32 32v384c0 17.664-14.336 32-32 32zM480 21.719c0-8.848-7.152-16-16-16h-416c-8.832 0-16 7.152-16 16v256c0 8.832 7.168 16 16 16h416c8.848 0 16-7.168 16-16v-256zM201.36 29.719h-46.096v173.76c-16.848-15.744-36.688-27.408-59.552-34.96v41.824c12.032 3.936 25.104 11.408 39.216 22.4s23.792 23.808 29.040 38.464h37.408v-241.488zM426.464 211.351l-44.624-4.944c-1.104 9.184-3.936 15.984-8.528 20.352s-10.56 6.56-17.888 6.56c-9.728 0-17.968-4.368-24.688-13.12-6.736-8.752-10.976-26.96-12.72-54.64 11.488 13.568 25.76 20.336 42.832 20.336 19.232 0 35.728-7.328 49.456-21.984s20.592-33.584 20.592-56.768c0-24.608-7.216-44.352-21.664-59.216-14.432-14.896-32.992-22.32-55.616-22.32-24.288 0-44.256 9.424-59.888 28.304-15.648 18.864-23.456 49.792-23.456 92.768 0 44.096 8.144 75.856 24.432 95.328s37.456 29.2 63.504 29.2c18.256 0 33.376-5.12 45.36-15.344 11.984-10.208 19.616-25.056 22.896-44.512zM321.952 110.775c0-14.992 3.456-26.544 10.336-34.704 6.912-8.144 14.784-12.224 23.632-12.224 8.528 0 15.648 3.328 21.344 10 5.664 6.672 8.528 17.616 8.528 32.816 0 15.664-3.072 27.088-9.184 34.368-6.144 7.28-13.776 10.912-22.976 10.912-8.88 0-16.352-3.472-22.48-10.4-6.144-6.96-9.2-17.2-9.2-30.768z" />
<glyph unicode="&#xe614;" d="M368.012 360.723h32.001c8.849 0 16 7.168 16 16.001v96.003c0 8.832-7.152 16-16 16h-32.001c-8.849 0-16-7.168-16-16v-96.003c0-8.833 7.152-16.001 16-16.001zM112.004 360.723h32.001c8.833 0 16 7.168 16 16.001v96.003c0 8.832-7.168 16-16 16h-32.001c-8.832 0-16.001-7.168-16.001-16v-96.003c0-8.833 7.168-16.001 16.001-16.001zM480.015 424.725h-32.001v-80.002c0-8.832-7.152-16-16-16h-96.003c-8.849 0-16 7.168-16 16v80.002h-128.004v-80.002c0-8.832-7.168-16-16-16h-96.003c-8.832 0-16.001 7.168-16.001 16v80.002h-32.001c-17.665 0-32.001-14.337-32.001-32.001v-383.996c0-17.664 14.336-32.001 32.001-32.001h448.014c17.664 0 32.001 14.337 32.001 32.001v383.996c0 17.664-14.337 32.001-32.001 32.001zM480.015 21.72c0-8.849-7.152-16-16-16h-416.013c-8.832 0-16.001 7.152-16.001 16v255.992c0 8.832 7.168 16 16.001 16h416.013c8.849 0 16-7.168 16-16v-255.992zM201.367 29.705h-46.097v173.766c-16.849-15.745-36.689-27.409-59.554-34.961v41.825c12.032 3.936 25.105 11.409 39.217 22.4 14.113 10.993 23.792 23.809 29.041 38.465h37.409v-241.495zM270.296 224.126v42.834h157.669v-33.473c-13.009-12.8-26.257-31.169-39.697-55.121s-23.697-49.425-30.769-76.37c-7.040-26.961-10.529-51.041-10.401-72.274h-44.466c0.768 33.249 7.632 67.154 20.593 101.715s30.273 65.474 51.921 92.691h-104.851z" />
<glyph unicode="&#xe615;" d="M368.012 360.723h32.001c8.849 0 16 7.168 16 16.001v96.003c0 8.832-7.152 16-16 16h-32.001c-8.849 0-16-7.168-16-16v-96.003c0-8.833 7.152-16.001 16-16.001zM112.004 360.723h32.001c8.833 0 16 7.168 16 16.001v96.003c0 8.832-7.168 16-16 16h-32.001c-8.832 0-16.001-7.168-16.001-16v-96.003c0-8.833 7.168-16.001 16.001-16.001zM480.015 424.725h-32.001v-80.002c0-8.832-7.152-16-16-16h-96.003c-8.849 0-16 7.168-16 16v80.002h-128.004v-80.002c0-8.832-7.168-16-16-16h-96.003c-8.832 0-16.001 7.168-16.001 16v80.002h-32.001c-17.665 0-32.001-14.337-32.001-32.001v-383.996c0-17.664 14.336-32.001 32.001-32.001h448.014c17.664 0 32.001 14.337 32.001 32.001v383.996c0 17.664-14.337 32.001-32.001 32.001zM480.015 21.72c0-8.849-7.152-16-16-16h-416.013c-8.832 0-16.001 7.152-16.001 16v255.992c0 8.832 7.168 16 16.001 16h416.013c8.849 0 16-7.168 16-16v-255.992zM201.367 29.705h-46.097v173.766c-16.849-15.745-36.689-27.409-59.554-34.961v41.825c12.032 3.936 25.105 11.409 39.217 22.4 14.113 10.993 23.792 23.809 29.041 38.465h37.409v-241.495zM309.817 159.501c-11.921 5.024-20.592 11.937-26.001 20.752-5.424 8.8-8.128 18.449-8.128 28.961 0 17.937 6.272 32.753 18.784 44.465 12.529 11.696 30.337 17.552 53.409 17.552 22.865 0 40.609-5.856 53.233-17.552 12.64-11.696 18.961-26.529 18.961-44.465 0-11.152-2.912-21.072-8.688-29.777-5.808-8.688-13.952-15.329-24.449-19.921 13.344-5.376 23.488-13.185 30.433-23.473s10.416-22.161 10.416-35.601c0-22.224-7.088-40.274-21.248-54.161-14.176-13.889-33.009-20.832-56.53-20.832-21.873 0-40.082 5.728-54.625 17.233-17.168 13.553-25.745 32.161-25.745 55.778 0 13.009 3.216 24.961 9.664 35.841s16.625 19.296 30.513 25.201zM315.066 102.891c0-12.688 3.248-22.592 9.76-29.697 6.496-7.104 14.625-10.656 24.353-10.656 9.521 0 17.392 3.424 23.632 10.257 6.24 6.848 9.344 16.704 9.344 29.633 0 11.248-3.168 20.32-9.505 27.137-6.352 6.832-14.385 10.272-24.129 10.272-11.264 0-19.664-3.888-25.185-11.664-5.504-7.792-8.272-16.209-8.272-25.281zM319.338 205.918c0-9.185 2.592-16.353 7.792-21.488 5.2-5.152 12.113-7.712 20.752-7.712 8.752 0 15.745 2.592 21.009 7.792 5.248 5.184 7.872 12.385 7.872 21.584 0 8.625-2.592 15.553-7.792 20.752-5.184 5.184-12.048 7.792-20.577 7.792-8.88 0-15.921-2.624-21.168-7.872s-7.888-12.209-7.888-20.849z" />
<glyph unicode="&#xe616;" d="M368 360.727h32c8.848 0 16 7.152 16 16v96c0 8.816-7.152 16-16 16h-32c-8.848 0-16-7.184-16-16v-96c0-8.848 7.152-16 16-16zM112 360.727h32c8.832 0 16 7.152 16 16v96c0 8.816-7.168 16-16 16h-32c-8.832 0-16-7.184-16-16v-96c0-8.848 7.168-16 16-16zM480 424.727h-32v-80c0-8.848-7.152-16-16-16h-96c-8.848 0-16 7.152-16 16v80h-128v-80c0-8.848-7.168-16-16-16h-96c-8.832 0-16 7.152-16 16v80h-32c-17.664 0-32-14.336-32-32v-384c0-17.664 14.336-32 32-32h448c17.664 0 32 14.336 32 32v384c0 17.664-14.336 32-32 32zM480 21.719c0-8.848-7.152-16-16-16h-416c-8.832 0-16 7.152-16 16v256c0 8.816 7.168 16 16 16h416c8.848 0 16-7.184 16-16v-256zM201.36 29.719h-46.112v173.76c-16.848-15.744-36.688-27.408-59.552-34.96v41.824c12.032 3.936 25.104 11.408 39.2 22.4 14.128 10.992 23.792 23.808 29.040 38.464h37.408v-241.488zM271.248 85.351l44.624 4.912c1.088-9.072 3.936-15.792 8.528-20.176s10.672-6.56 18.224-6.56c9.52 0 17.616 4.368 24.288 13.12s10.944 26.912 12.8 54.464c-11.6-13.456-26.080-20.176-43.488-20.176-18.928 0-35.232 7.296-48.976 21.888-13.712 14.608-20.592 33.616-20.592 57.008 0 24.384 7.248 44.048 21.744 58.992 14.48 14.928 32.944 22.384 55.376 22.384 24.368 0 44.384-9.44 60.032-28.304 15.648-18.88 23.472-49.904 23.472-93.104 0-43.968-8.16-75.68-24.432-95.152-16.32-19.472-37.536-29.2-63.664-29.2-18.832 0-34.032 5.008-45.632 15.008-11.584 10.016-19.024 24.976-22.304 44.896zM375.6 186.071c0 14.88-3.408 26.416-10.256 34.624-6.832 8.208-14.736 12.304-23.696 12.304-8.528 0-15.616-3.36-21.248-10.080-5.632-6.736-8.448-17.744-8.448-33.056 0-15.536 3.056-26.944 9.184-34.208 6.112-7.28 13.776-10.928 22.96-10.928 8.88 0 16.336 3.504 22.4 10.496 6.064 7.008 9.104 17.28 9.104 30.848z" />
<glyph unicode="&#xe617;" d="M368 360.727h32c8.848 0 16 7.152 16 16v96c0 8.816-7.152 16-16 16h-32c-8.848 0-16-7.184-16-16v-96c0-8.848 7.152-16 16-16zM112 360.727h32c8.832 0 16 7.152 16 16v96c0 8.816-7.168 16-16 16h-32c-8.832 0-16-7.184-16-16v-96c0-8.848 7.168-16 16-16zM480 424.727h-32v-80c0-8.848-7.152-16-16-16h-96c-8.848 0-16 7.152-16 16v80h-128v-80c0-8.848-7.168-16-16-16h-96c-8.832 0-16 7.152-16 16v80h-32c-17.664 0-32-14.336-32-32v-384c0-17.664 14.336-32 32-32h448c17.664 0 32 14.336 32 32v384c0 17.664-14.336 32-32 32zM480 21.719c0-8.848-7.152-16-16-16h-416c-8.832 0-16 7.152-16 16v256c0 8.816 7.168 16 16 16h416c8.848 0 16-7.184 16-16v-256zM239.088 72.535v-42.816h-161.6c1.744 16.192 7.008 31.536 15.744 46.016 8.752 14.496 26.032 33.712 51.84 57.664 20.768 19.36 33.52 32.48 38.224 39.376 6.336 9.52 9.52 18.928 9.52 28.224 0 10.288-2.768 18.176-8.288 23.696-5.536 5.52-13.152 8.288-22.896 8.288-9.632 0-17.28-2.896-22.976-8.688s-8.976-15.424-9.84-28.88l-45.936 4.592c2.736 25.376 11.312 43.584 25.744 54.64s32.496 16.576 54.16 16.576c23.712 0 42.368-6.4 55.936-19.2s20.336-28.704 20.336-47.744c0-10.832-1.936-21.136-5.824-30.928-3.872-9.792-10.032-20.048-18.448-30.768-5.584-7.104-15.648-17.344-30.192-30.688s-23.76-22.208-27.648-26.56c-3.888-4.384-7.024-8.656-9.44-12.816h91.584zM348.208 271.223c23.296 0 41.52-8.32 54.64-24.944 15.632-19.68 23.456-52.336 23.456-97.936 0-45.504-7.872-78.224-23.632-98.128-13.008-16.4-31.168-24.592-54.464-24.592-23.408 0-42.288 8.992-56.608 26.992-14.336 17.984-21.488 50.064-21.488 96.224 0 45.28 7.872 77.872 23.632 97.776 13.008 16.416 31.168 24.608 54.464 24.608zM348.208 232.999c-5.584 0-10.56-1.776-14.928-5.328-4.384-3.552-7.776-9.92-10.192-19.104-3.168-11.92-4.752-31.984-4.752-60.208s1.424-47.632 4.272-58.176 6.416-17.584 10.752-21.072c4.32-3.504 9.264-5.248 14.848-5.248s10.544 1.776 14.928 5.328c4.368 3.568 7.76 9.92 10.192 19.104 3.152 11.808 4.752 31.84 4.752 60.064s-1.424 47.6-4.272 58.16c-2.848 10.544-6.416 17.6-10.752 21.152-4.32 3.552-9.28 5.328-14.848 5.328z" />
<glyph unicode="&#xe618;" d="M368 360.727h32c8.848 0 16 7.152 16 16v96c0 8.816-7.152 16-16 16h-32c-8.848 0-16-7.184-16-16v-96c0-8.848 7.152-16 16-16zM112 360.727h32c8.832 0 16 7.152 16 16v96c0 8.816-7.168 16-16 16h-32c-8.832 0-16-7.184-16-16v-96c0-8.848 7.168-16 16-16zM480 424.727h-32v-80c0-8.848-7.152-16-16-16h-96c-8.848 0-16 7.152-16 16v80h-128v-80c0-8.848-7.168-16-16-16h-96c-8.832 0-16 7.152-16 16v80h-32c-17.664 0-32-14.336-32-32v-384c0-17.664 14.336-32 32-32h448c17.664 0 32 14.336 32 32v384c0 17.664-14.336 32-32 32zM480 21.719c0-8.848-7.152-16-16-16h-416c-8.832 0-16 7.152-16 16v256c0 8.816 7.168 16 16 16h416c8.848 0 16-7.184 16-16v-256zM239.088 72.535v-42.816h-161.6c1.744 16.192 7.008 31.536 15.744 46.016 8.752 14.496 26.032 33.712 51.84 57.664 20.768 19.36 33.52 32.48 38.224 39.376 6.336 9.52 9.52 18.928 9.52 28.224 0 10.288-2.768 18.176-8.288 23.696-5.536 5.52-13.152 8.288-22.896 8.288-9.632 0-17.28-2.896-22.976-8.688s-8.976-15.424-9.84-28.88l-45.936 4.592c2.736 25.376 11.312 43.584 25.744 54.64s32.496 16.576 54.16 16.576c23.712 0 42.368-6.4 55.936-19.2s20.336-28.704 20.336-47.744c0-10.832-1.936-21.136-5.824-30.928-3.872-9.792-10.032-20.048-18.448-30.768-5.584-7.104-15.648-17.344-30.192-30.688s-23.76-22.208-27.648-26.56c-3.888-4.384-7.024-8.656-9.44-12.816h91.584zM388.24 29.719h-46.112v173.76c-16.848-15.744-36.688-27.408-59.552-34.96v41.824c12.032 3.936 25.104 11.408 39.2 22.4 14.128 10.992 23.792 23.808 29.040 38.464h37.408v-241.488z" />
<glyph unicode="&#xe619;" d="M368 360.727h32c8.848 0 16 7.184 16 16v96c0 8.848-7.152 16-16 16h-32c-8.848 0-16-7.152-16-16v-96c0-8.816 7.152-16 16-16zM112 360.727h32c8.832 0 16 7.184 16 16v96c0 8.848-7.168 16-16 16h-32c-8.832 0-16-7.152-16-16v-96c0-8.816 7.168-16 16-16zM480 424.727h-32v-80c0-8.816-7.152-16-16-16h-96c-8.848 0-16 7.184-16 16v80h-128v-80c0-8.816-7.168-16-16-16h-96c-8.832 0-16 7.184-16 16v80h-32c-17.664 0-32-14.336-32-32v-384c0-17.664 14.336-32 32-32h448c17.664 0 32 14.336 32 32v384c0 17.664-14.336 32-32 32zM480 21.719c0-8.848-7.152-16-16-16h-416c-8.832 0-16 7.152-16 16v256c0 8.848 7.168 16 16 16h416c8.848 0 16-7.152 16-16v-256zM239.088 72.551v-42.816h-161.6c1.744 16.192 7.008 31.536 15.744 46.016 8.752 14.496 26.032 33.712 51.84 57.664 20.768 19.36 33.52 32.48 38.224 39.376 6.336 9.52 9.52 18.928 9.52 28.224 0 10.288-2.768 18.176-8.288 23.696-5.536 5.536-13.152 8.288-22.896 8.288-9.632 0-17.28-2.896-22.976-8.688s-8.976-15.424-9.84-28.88l-45.936 4.592c2.736 25.376 11.328 43.6 25.76 54.624 14.432 11.056 32.48 16.576 54.144 16.576 23.712 0 42.368-6.384 55.936-19.2 13.568-12.784 20.336-28.704 20.336-47.728 0-10.832-1.936-21.136-5.824-30.928-3.872-9.792-10.032-20.048-18.448-30.768-5.584-7.104-15.648-17.328-30.192-30.672-14.544-13.36-23.76-22.224-27.648-26.576-3.888-4.384-7.024-8.656-9.44-12.816h91.584zM425.968 72.551v-42.816h-161.6c1.728 16.192 6.992 31.536 15.744 46.016 8.736 14.496 26.016 33.712 51.84 57.664 20.768 19.36 33.52 32.48 38.224 39.376 6.336 9.52 9.52 18.928 9.52 28.224 0 10.288-2.768 18.176-8.288 23.696-5.536 5.536-13.152 8.288-22.896 8.288-9.632 0-17.28-2.896-22.976-8.688s-8.976-15.424-9.84-28.88l-45.936 4.592c2.736 25.376 11.312 43.6 25.744 54.624 14.432 11.056 32.496 16.576 54.16 16.576 23.712 0 42.368-6.384 55.936-19.2 13.568-12.784 20.336-28.704 20.336-47.728 0-10.832-1.936-21.136-5.824-30.928-3.872-9.792-10.032-20.048-18.448-30.768-5.584-7.104-15.648-17.328-30.192-30.672-14.544-13.36-23.76-22.224-27.648-26.576-3.888-4.384-7.024-8.656-9.44-12.816h91.584z" />
<glyph unicode="&#xe61a;" d="M368.012 360.723h32.001c8.849 0 16 7.184 16 16.001v96.003c0 8.849-7.152 16-16 16h-32.001c-8.849 0-16-7.152-16-16v-96.003c0-8.817 7.152-16.001 16-16.001zM112.004 360.723h32.001c8.833 0 16 7.184 16 16.001v96.003c0 8.849-7.168 16-16 16h-32.001c-8.832 0-16.001-7.152-16.001-16v-96.003c0-8.817 7.168-16.001 16.001-16.001zM480.015 424.725h-32.001v-80.002c0-8.817-7.152-16-16-16h-96.003c-8.849 0-16 7.184-16 16v80.002h-128.004v-80.002c0-8.817-7.168-16-16-16h-96.003c-8.832 0-16.001 7.184-16.001 16v80.002h-32.001c-17.665 0-32.001-14.337-32.001-32.001v-384.012c0-17.664 14.336-32.001 32.001-32.001h448.014c17.664 0 32.001 14.337 32.001 32.001v384.012c0 17.665-14.337 32.001-32.001 32.001zM480.015 21.705c0-8.849-7.152-16-16-16h-416.013c-8.832 0-16.001 7.152-16.001 16v256.008c0 8.849 7.168 16 16.001 16h416.013c8.849 0 16-7.152 16-16v-256.008zM239.095 72.522v-42.817h-161.605c1.744 16.192 7.008 31.537 15.745 46.017 8.752 14.497 26.033 33.713 51.842 57.666 20.768 19.361 33.521 32.481 38.225 39.377 6.336 9.521 9.52 18.928 9.52 28.225 0 10.288-2.768 18.192-8.288 23.697-5.536 5.52-13.153 8.304-22.897 8.304-9.632 0-17.28-2.912-22.976-8.705s-8.976-15.425-9.84-28.881l-45.938 4.592c2.736 25.377 11.329 43.585 25.761 54.642 14.433 11.024 32.481 16.56 54.145 16.56 23.713 0 42.369-6.4 55.938-19.185 13.569-12.816 20.337-28.721 20.337-47.745 0-10.832-1.936-21.137-5.824-30.929-3.872-9.793-10.032-20.048-18.448-30.769-5.584-7.104-15.649-17.344-30.193-30.689s-23.761-22.209-27.649-26.561c-3.888-4.384-7.024-8.656-9.441-12.817h91.587zM268.632 93.53l44.625 5.424c1.424-11.377 5.248-20.081 11.505-26.081 6.224-6.032 13.776-9.024 22.625-9.024 9.536 0 17.536 3.616 24.049 10.832 6.496 7.216 9.76 16.961 9.76 29.201 0 11.601-3.12 20.784-9.361 27.569s-13.841 10.176-22.8 10.176c-5.904 0-12.976-1.136-21.168-3.456l5.072 37.585c12.464-0.336 22 2.368 28.561 8.128 6.56 5.728 9.841 13.361 9.841 22.897 0 8.096-2.416 14.529-7.216 19.344-4.832 4.816-11.216 7.216-19.2 7.216-7.872 0-14.608-2.72-20.176-8.192-5.6-5.472-8.993-13.473-10.192-23.969l-42.481 7.216c2.96 14.56 7.408 26.177 13.377 34.881 5.952 8.689 14.272 15.536 24.945 20.496 10.656 4.976 22.608 7.472 35.841 7.472 22.64 0 40.801-7.216 54.466-21.664 11.264-11.809 16.897-25.153 16.897-40.034 0-21.105-11.536-37.953-34.609-50.529 13.776-2.96 24.801-9.568 33.057-19.841 8.257-10.288 12.385-22.704 12.385-37.249 0-21.105-7.712-39.105-23.137-53.969-15.425-14.897-34.609-22.32-57.586-22.32-21.776 0-39.825 6.256-54.161 18.784-14.305 12.497-22.593 28.865-24.913 49.106z" />
<glyph unicode="&#xe61b;" d="M368 360.727h32c8.848 0 16 7.152 16 16v96c0 8.816-7.152 16-16 16h-32c-8.848 0-16-7.184-16-16v-96c0-8.848 7.152-16 16-16zM112 360.727h32c8.832 0 16 7.152 16 16v96c0 8.816-7.168 16-16 16h-32c-8.832 0-16-7.184-16-16v-96c0-8.848 7.168-16 16-16zM480 424.727h-32v-80c0-8.848-7.152-16-16-16h-96c-8.848 0-16 7.152-16 16v80h-128v-80c0-8.848-7.168-16-16-16h-96c-8.832 0-16 7.152-16 16v80h-32c-17.664 0-32-14.336-32-32v-384c0-17.664 14.336-32 32-32h448c17.664 0 32 14.336 32 32v384c0 17.664-14.336 32-32 32zM480 21.719c0-8.848-7.152-16-16-16h-416c-8.832 0-16 7.152-16 16v256c0 8.816 7.168 16 16 16h416c8.848 0 16-7.184 16-16v-256zM239.088 72.535v-42.816h-161.6c1.744 16.192 7.008 31.536 15.744 46.016 8.752 14.496 26.032 33.712 51.84 57.664 20.768 19.36 33.52 32.48 38.224 39.376 6.336 9.52 9.52 18.928 9.52 28.224 0 10.288-2.768 18.192-8.288 23.696-5.536 5.52-13.152 8.304-22.896 8.304-9.632 0-17.28-2.912-22.976-8.704s-8.976-15.424-9.84-28.88l-45.936 4.592c2.736 25.376 11.328 43.584 25.76 54.64 14.432 11.024 32.48 16.56 54.144 16.56 23.712 0 42.368-6.4 55.936-19.184 13.568-12.816 20.336-28.72 20.336-47.744 0-10.832-1.936-21.136-5.824-30.928-3.872-9.792-10.032-20.048-18.448-30.768-5.584-7.104-15.648-17.344-30.192-30.688s-23.76-22.208-27.648-26.56c-3.888-4.384-7.024-8.656-9.44-12.816h91.584zM360.672 29.719v48.4h-98.432v40.336l104.336 152.752h38.72v-152.576h29.856v-40.512h-29.856v-48.4h-44.624zM360.672 118.647v82.208l-55.296-82.208h55.296z" />
<glyph unicode="&#xe61c;" d="M368 360.727h32c8.848 0 16 7.152 16 16v96c0 8.816-7.152 16-16 16h-32c-8.848 0-16-7.184-16-16v-96c0-8.848 7.152-16 16-16zM112 360.727h32c8.832 0 16 7.152 16 16v96c0 8.816-7.168 16-16 16h-32c-8.832 0-16-7.184-16-16v-96c0-8.848 7.168-16 16-16zM480 424.727h-32v-80c0-8.848-7.152-16-16-16h-96c-8.848 0-16 7.152-16 16v80h-128v-80c0-8.848-7.168-16-16-16h-96c-8.832 0-16 7.152-16 16v80h-32c-17.664 0-32-14.336-32-32v-384c0-17.664 14.336-32 32-32h448c17.68 0 32.032 14.336 32.032 32v384c0 17.664-14.352 32-32.032 32zM480 21.719c0-8.848-7.152-16-16-16h-416c-8.832 0-16 7.152-16 16v256c0 8.816 7.168 16 16 16h416c8.848 0 16-7.184 16-16v-256zM239.088 72.535v-42.816h-161.6c1.744 16.192 7.008 31.536 15.744 46.016 8.752 14.496 26.032 33.712 51.84 57.664 20.768 19.36 33.52 32.48 38.224 39.376 6.336 9.52 9.52 18.928 9.52 28.224 0 10.288-2.768 18.192-8.288 23.696-5.536 5.52-13.152 8.304-22.896 8.304-9.632 0-17.28-2.912-22.976-8.704s-8.976-15.424-9.84-28.88l-45.936 4.592c2.736 25.376 11.328 43.584 25.76 54.64 14.432 11.024 32.48 16.56 54.144 16.56 23.712 0 42.368-6.4 55.936-19.184 13.568-12.816 20.336-28.72 20.336-47.744 0-10.832-1.936-21.136-5.824-30.928-3.872-9.792-10.032-20.048-18.448-30.768-5.584-7.104-15.648-17.344-30.192-30.688s-23.76-22.208-27.648-26.56c-3.888-4.384-7.024-8.656-9.44-12.816h91.584zM270.944 91.575l45.936 4.768c1.312-10.384 5.184-18.624 11.648-24.688 6.448-6.080 13.888-9.104 22.32-9.104 9.632 0 17.76 3.904 24.448 11.728 6.656 7.808 10 19.616 10 35.36 0 14.752-3.312 25.824-9.92 33.216-6.624 7.376-15.232 11.056-25.84 11.056-13.232 0-25.104-5.84-35.616-17.552l-37.408 5.424 23.632 125.168h121.904v-43.136h-86.96l-7.216-40.864c10.288 5.136 20.784 7.696 31.504 7.696 20.448 0 37.776-7.44 52.016-22.32 14.208-14.88 21.312-34.176 21.312-57.904 0-19.792-5.728-37.472-17.216-53.008-15.648-21.216-37.36-31.808-65.12-31.808-22.224 0-40.32 5.952-54.32 17.872s-22.384 27.968-25.104 48.096z" />
<glyph unicode="&#xe61d;" d="M368 360.727h32c8.848 0 16 7.152 16 16v96c0 8.816-7.152 16-16 16h-32c-8.848 0-16-7.184-16-16v-96c0-8.848 7.152-16 16-16zM112 360.727h32c8.832 0 16 7.152 16 16v96c0 8.816-7.168 16-16 16h-32c-8.832 0-16-7.184-16-16v-96c0-8.848 7.168-16 16-16zM480 424.727h-32v-80c0-8.848-7.152-16-16-16h-96c-8.848 0-16 7.152-16 16v80h-128v-80c0-8.848-7.168-16-16-16h-96c-8.832 0-16 7.152-16 16v80h-32c-17.664 0-32-14.336-32-32v-384c0-17.664 14.336-32 32-32h448c17.664 0 32 14.336 32 32v384c0 17.664-14.336 32-32 32zM480 21.719c0-8.848-7.152-16-16-16h-416c-8.832 0-16 7.152-16 16v256c0 8.816 7.168 16 16 16h416c8.848 0 16-7.184 16-16v-256zM239.088 72.535v-42.816h-161.6c1.744 16.192 7.008 31.536 15.744 46.016 8.752 14.496 26.032 33.712 51.84 57.664 20.768 19.36 33.52 32.48 38.224 39.376 6.336 9.52 9.52 18.928 9.52 28.224 0 10.288-2.768 18.192-8.288 23.696-5.536 5.52-13.152 8.304-22.896 8.304-9.632 0-17.28-2.912-22.976-8.704s-8.976-15.424-9.84-28.88l-45.936 4.592c2.736 25.376 11.312 43.584 25.744 54.64 14.432 11.024 32.496 16.56 54.16 16.56 23.712 0 42.368-6.4 55.936-19.184 13.568-12.816 20.336-28.72 20.336-47.744 0-10.832-1.936-21.136-5.824-30.928-3.872-9.792-10.032-20.048-18.448-30.768-5.584-7.104-15.648-17.344-30.192-30.688s-23.76-22.208-27.648-26.56c-3.888-4.384-7.024-8.656-9.44-12.816h91.584zM426.464 211.351l-44.624-4.944c-1.104 9.184-3.936 15.968-8.528 20.336s-10.56 6.56-17.888 6.56c-9.728 0-17.968-4.368-24.688-13.12-6.736-8.752-10.976-26.96-12.72-54.624 11.488 13.568 25.76 20.336 42.832 20.336 19.232 0 35.728-7.328 49.456-21.984s20.592-33.584 20.592-56.768c0-24.608-7.216-44.352-21.664-59.216-14.432-14.896-32.992-22.32-55.616-22.32-24.288 0-44.256 9.424-59.888 28.304-15.648 18.864-23.456 49.792-23.456 92.768 0 44.096 8.144 75.856 24.432 95.328s37.456 29.2 63.504 29.2c18.256 0 33.376-5.12 45.36-15.344 11.984-10.192 19.616-25.040 22.896-44.512zM321.952 110.775c0-14.992 3.456-26.544 10.336-34.704 6.912-8.144 14.784-12.224 23.632-12.224 8.528 0 15.648 3.328 21.344 10 5.664 6.672 8.528 17.616 8.528 32.816 0 15.664-3.072 27.088-9.184 34.368-6.144 7.28-13.776 10.912-22.976 10.912-8.88 0-16.352-3.472-22.48-10.4-6.144-6.96-9.2-17.2-9.2-30.768z" />
<glyph unicode="&#xe61e;" d="M368 360.711h32c8.848 0 16 7.152 16 16v96c0 8.816-7.152 16-16 16h-32c-8.848 0-16-7.184-16-16v-96c0-8.848 7.152-16 16-16zM112 360.711h32c8.832 0 16 7.152 16 16v96c0 8.816-7.168 16-16 16h-32c-8.832 0-16-7.184-16-16v-96c0-8.848 7.168-16 16-16zM480 424.711h-32v-80c0-8.848-7.152-16-16-16h-96c-8.848 0-16 7.152-16 16v80h-128v-80c0-8.848-7.168-16-16-16h-96c-8.832 0-16 7.152-16 16v80h-32c-17.664 0-32-14.336-32-32v-384c0-17.664 14.336-32 32-32h448c17.664 0 32 14.336 32 32v384c0 17.664-14.336 32-32 32zM480 21.719c0-8.848-7.152-16-16-16h-416c-8.832 0-16 7.152-16 16v256c0 8.816 7.168 16 16 16h416c8.848 0 16-7.184 16-16v-256zM239.088 72.535v-42.816h-161.6c1.744 16.192 7.008 31.536 15.744 46.016 8.752 14.496 26.032 33.712 51.84 57.664 20.768 19.36 33.52 32.48 38.224 39.376 6.336 9.52 9.52 18.928 9.52 28.224 0 10.288-2.768 18.192-8.288 23.696-5.536 5.52-13.152 8.304-22.896 8.304-9.632 0-17.28-2.912-22.976-8.704s-8.976-15.424-9.84-28.88l-45.936 4.592c2.736 25.376 11.312 43.584 25.744 54.64 14.432 11.024 32.496 16.56 54.16 16.56 23.712 0 42.368-6.4 55.936-19.184 13.568-12.816 20.336-28.72 20.336-47.744 0-10.832-1.936-21.136-5.824-30.928-3.872-9.792-10.032-20.048-18.448-30.768-5.584-7.104-15.648-17.344-30.192-30.688s-23.76-22.208-27.648-26.56c-3.888-4.384-7.024-8.656-9.44-12.816h91.584zM270.288 224.135v42.832h157.664v-33.472c-13.008-12.8-26.256-31.168-39.696-55.12s-23.696-49.424-30.768-76.368c-7.040-26.96-10.528-51.040-10.4-72.272h-44.464c0.768 33.248 7.632 67.152 20.592 101.712s30.272 65.472 51.92 92.688h-104.848z" />
<glyph unicode="&#xe61f;" d="M368 360.727h32c8.848 0 16 7.152 16 16v96c0 8.816-7.152 16-16 16h-32c-8.848 0-16-7.184-16-16v-96c0-8.848 7.152-16 16-16zM112 360.727h32c8.832 0 16 7.152 16 16v96c0 8.816-7.168 16-16 16h-32c-8.832 0-16-7.184-16-16v-96c0-8.848 7.168-16 16-16zM480 424.727h-32v-80c0-8.848-7.152-16-16-16h-96c-8.848 0-16 7.152-16 16v80h-128v-80c0-8.848-7.168-16-16-16h-96c-8.832 0-16 7.152-16 16v80h-32c-17.664 0-32-14.336-32-32v-384c0-17.664 14.336-32 32-32h448c17.664 0 32 14.336 32 32v384c0 17.664-14.336 32-32 32zM480 21.719c0-8.848-7.152-16-16-16h-416c-8.832 0-16 7.152-16 16v256c0 8.816 7.168 16 16 16h416c8.848 0 16-7.184 16-16v-256zM239.088 72.535v-42.816h-161.6c1.744 16.192 7.008 31.536 15.744 46.016 8.752 14.496 26.032 33.712 51.84 57.664 20.768 19.36 33.52 32.48 38.224 39.376 6.336 9.52 9.52 18.928 9.52 28.224 0 10.288-2.768 18.192-8.288 23.696-5.536 5.52-13.152 8.304-22.896 8.304-9.632 0-17.28-2.912-22.976-8.704s-8.976-15.424-9.84-28.88l-45.936 4.592c2.736 25.376 11.312 43.584 25.744 54.64 14.432 11.024 32.496 16.56 54.16 16.56 23.712 0 42.368-6.4 55.936-19.184 13.568-12.816 20.336-28.72 20.336-47.744 0-10.832-1.936-21.136-5.824-30.928-3.872-9.792-10.032-20.048-18.448-30.768-5.584-7.104-15.648-17.344-30.192-30.688s-23.76-22.208-27.648-26.56c-3.888-4.384-7.024-8.656-9.44-12.816h91.584zM309.808 159.511c-11.92 5.024-20.592 11.936-26 20.752-5.424 8.8-8.128 18.448-8.128 28.96 0 17.936 6.272 32.768 18.784 44.448 12.528 11.712 30.336 17.568 53.408 17.568 22.864 0 40.608-5.84 53.232-17.568 12.64-11.68 18.96-26.512 18.96-44.448 0-11.152-2.912-21.072-8.688-29.776-5.808-8.688-13.952-15.328-24.448-19.92 13.344-5.376 23.488-13.184 30.432-23.472s10.416-22.16 10.416-35.6c0-22.224-7.088-40.272-21.248-54.16-14.176-13.888-33.008-20.832-56.528-20.832-21.872 0-40.080 5.728-54.624 17.232-17.168 13.552-25.744 32.16-25.744 55.776 0 13.008 3.216 24.96 9.664 35.84s16.624 19.296 30.512 25.2zM315.056 102.903c0-12.688 3.248-22.592 9.76-29.696 6.496-7.104 14.624-10.656 24.352-10.656 9.52 0 17.392 3.424 23.632 10.256 6.24 6.848 9.344 16.704 9.344 29.632 0 11.248-3.168 20.32-9.504 27.136-6.352 6.832-14.384 10.272-24.128 10.272-11.264 0-19.664-3.888-25.184-11.664-5.504-7.792-8.272-16.208-8.272-25.28zM319.328 205.927c0-9.184 2.592-16.352 7.792-21.488 5.2-5.152 12.112-7.712 20.752-7.712 8.752 0 15.744 2.592 21.008 7.792 5.248 5.184 7.872 12.384 7.872 21.584 0 8.624-2.592 15.552-7.792 20.752-5.184 5.184-12.048 7.776-20.576 7.776-8.88 0-15.92-2.624-21.168-7.872s-7.888-12.192-7.888-20.832z" />
<glyph unicode="&#xe620;" d="M368 360.727h32c8.848 0 16 7.168 16 16v96c0 8.832-7.152 16-16 16h-32c-8.848 0-16-7.168-16-16v-96c0-8.832 7.152-16 16-16zM112 360.727h32c8.832 0 16 7.168 16 16v96c0 8.832-7.168 16-16 16h-32c-8.832 0-16-7.168-16-16v-96c0-8.832 7.168-16 16-16zM480 424.727h-32v-80c0-8.832-7.152-16-16-16h-96c-8.848 0-16 7.168-16 16v80h-128v-80c0-8.832-7.168-16-16-16h-96c-8.832 0-16 7.168-16 16v80h-32c-17.664 0-32-14.336-32-32v-384c0-17.664 14.336-32 32-32h448c17.664 0 32 14.336 32 32v384c0 17.664-14.336 32-32 32zM480 21.719c0-8.848-7.152-16-16-16h-416c-8.832 0-16 7.152-16 16v256c0 8.832 7.168 16 16 16h416c8.848 0 16-7.168 16-16v-256zM239.088 72.535v-42.816h-161.6c1.744 16.192 7.008 31.536 15.744 46.016 8.752 14.496 26.032 33.712 51.84 57.664 20.768 19.36 33.52 32.48 38.224 39.376 6.336 9.52 9.52 18.928 9.52 28.224 0 10.288-2.768 18.192-8.288 23.696-5.536 5.52-13.152 8.304-22.896 8.304-9.632 0-17.28-2.912-22.976-8.704s-8.976-15.424-9.84-28.88l-45.936 4.592c2.736 25.376 11.328 43.584 25.76 54.64 14.432 11.024 32.48 16.56 54.144 16.56 23.712 0 42.368-6.4 55.936-19.184 13.568-12.816 20.336-28.72 20.336-47.744 0-10.832-1.936-21.136-5.824-30.928-3.872-9.792-10.032-20.048-18.448-30.768-5.584-7.104-15.648-17.344-30.192-30.688s-23.76-22.208-27.648-26.56c-3.888-4.384-7.024-8.656-9.44-12.816h91.584zM271.248 85.351l44.624 4.912c1.088-9.072 3.936-15.792 8.528-20.176s10.672-6.56 18.224-6.56c9.52 0 17.616 4.368 24.288 13.12s10.944 26.912 12.8 54.464c-11.6-13.456-26.080-20.176-43.488-20.176-18.928 0-35.232 7.296-48.976 21.888-13.712 14.608-20.592 33.616-20.592 57.008 0 24.384 7.248 44.048 21.744 58.992 14.48 14.928 32.944 22.384 55.376 22.384 24.368 0 44.384-9.44 60.032-28.304 15.648-18.88 23.472-49.904 23.472-93.104 0-43.968-8.16-75.68-24.432-95.152-16.32-19.472-37.536-29.2-63.664-29.2-18.832 0-34.032 5.008-45.632 15.008-11.584 10.016-19.024 24.976-22.304 44.896zM375.6 186.071c0 14.88-3.408 26.416-10.256 34.624-6.832 8.208-14.736 12.32-23.696 12.32-8.528 0-15.616-3.376-21.248-10.096-5.632-6.736-8.448-17.744-8.448-33.056 0-15.536 3.056-26.944 9.184-34.208 6.128-7.28 13.776-10.928 22.976-10.928 8.88 0 16.336 3.504 22.4 10.496 6.048 7.008 9.088 17.28 9.088 30.848z" />
<glyph unicode="&#xe621;" d="M368 360.727h32c8.848 0 16 7.168 16 16v96c0 8.832-7.152 16-16 16h-32c-8.848 0-16-7.168-16-16v-96c0-8.832 7.152-16 16-16zM112 360.727h32c8.832 0 16 7.168 16 16v96c0 8.832-7.168 16-16 16h-32c-8.832 0-16-7.168-16-16v-96c0-8.832 7.168-16 16-16zM480 424.727h-32v-80c0-8.832-7.152-16-16-16h-96c-8.848 0-16 7.168-16 16v80h-128v-80c0-8.832-7.168-16-16-16h-96c-8.832 0-16 7.168-16 16v80h-32c-17.664 0-32-14.336-32-32v-384c0-17.664 14.336-32 32-32h448c17.664 0 32 14.336 32 32v384c0 17.664-14.336 32-32 32zM480 21.719c0-8.848-7.152-16-16-16h-416c-8.832 0-16 7.152-16 16v256c0 8.832 7.168 16 16 16h416c8.848 0 16-7.168 16-16v-256zM81.76 93.543l44.624 5.424c1.424-11.376 5.248-20.080 11.488-26.080 6.24-6.032 13.776-9.024 22.64-9.024 9.536 0 17.536 3.616 24.048 10.832 6.496 7.216 9.76 16.96 9.76 29.2 0 11.6-3.12 20.784-9.36 27.568s-13.84 10.176-22.8 10.176c-5.92 0-12.976-1.136-21.168-3.456l5.088 37.584c12.464-0.336 22 2.368 28.56 8.128 6.56 5.728 9.84 13.36 9.84 22.896 0 8.096-2.416 14.528-7.216 19.344-4.832 4.816-11.216 7.216-19.2 7.216-7.872 0-14.608-2.72-20.176-8.192s-8.976-13.472-10.176-23.968l-42.496 7.216c2.96 14.56 7.408 26.176 13.376 34.88 5.952 8.688 14.272 15.536 24.944 20.496 10.656 4.976 22.608 7.472 35.84 7.472 22.64 0 40.8-7.216 54.464-21.664 11.264-11.808 16.896-25.152 16.896-40.032 0-21.104-11.536-37.952-34.608-50.528 13.776-2.96 24.8-9.568 33.056-19.84 8.256-10.288 12.384-22.704 12.384-37.248 0-21.104-7.712-39.104-23.136-53.968-15.424-14.896-34.608-22.32-57.584-22.32-21.776 0-39.824 6.256-54.144 18.784-14.336 12.496-22.656 28.864-24.944 49.104zM348.208 271.223c23.296 0 41.52-8.32 54.64-24.944 15.632-19.68 23.456-52.336 23.456-97.936 0-45.504-7.872-78.224-23.632-98.128-13.008-16.4-31.168-24.592-54.464-24.592-23.408 0-42.288 8.992-56.608 26.992-14.336 17.984-21.488 50.064-21.488 96.224 0 45.28 7.872 77.872 23.632 97.776 13.008 16.416 31.168 24.608 54.464 24.608zM348.208 233.015c-5.584 0-10.56-1.776-14.928-5.344-4.384-3.568-7.776-9.92-10.192-19.104-3.168-11.92-4.752-31.984-4.752-60.208s1.424-47.632 4.272-58.176 6.416-17.584 10.752-21.072c4.32-3.504 9.264-5.248 14.848-5.248s10.544 1.776 14.928 5.328c4.368 3.568 7.76 9.92 10.192 19.104 3.152 11.808 4.752 31.84 4.752 60.064s-1.424 47.6-4.272 58.16c-2.848 10.544-6.416 17.6-10.752 21.152-4.32 3.552-9.28 5.344-14.848 5.344z" />
<glyph unicode="&#xe622;" d="M368.012 360.723h32.001c8.849 0 16 7.168 16 16.001v96.003c0 8.832-7.152 16-16 16h-32.001c-8.849 0-16-7.168-16-16v-96.003c0-8.833 7.152-16.001 16-16.001zM112.004 360.723h32.001c8.833 0 16 7.168 16 16.001v96.003c0 8.832-7.168 16-16 16h-32.001c-8.832 0-16.001-7.168-16.001-16v-96.003c0-8.833 7.168-16.001 16.001-16.001zM480.015 424.725h-32.001v-80.002c0-8.832-7.152-16-16-16h-96.003c-8.849 0-16 7.168-16 16v80.002h-128.004v-80.002c0-8.832-7.168-16-16-16h-96.003c-8.832 0-16.001 7.168-16.001 16v80.002h-32.001c-17.665 0-32.001-14.337-32.001-32.001v-383.996c0-17.664 14.336-32.001 32.001-32.001h448.014c17.664 0 32.001 14.337 32.001 32.001v383.996c0 17.664-14.337 32.001-32.001 32.001zM480.015 21.72c0-8.849-7.152-16-16-16h-416.013c-8.832 0-16.001 7.152-16.001 16v255.992c0 8.832 7.168 16 16.001 16h416.013c8.849 0 16-7.168 16-16v-255.992zM81.763 93.53l44.626 5.424c1.424-11.377 5.248-20.081 11.488-26.081 6.24-6.032 13.776-9.024 22.641-9.024 9.536 0 17.536 3.616 24.049 10.832 6.496 7.216 9.761 16.961 9.761 29.201 0 11.601-3.12 20.784-9.361 27.569s-13.84 10.176-22.8 10.176c-5.92 0-12.976-1.136-21.168-3.456l5.088 37.585c12.464-0.336 22 2.368 28.561 8.128 6.56 5.728 9.84 13.361 9.84 22.897 0 8.096-2.416 14.529-7.216 19.344-4.832 4.816-11.216 7.216-19.201 7.216-7.872 0-14.608-2.72-20.177-8.192s-8.976-13.473-10.177-23.969l-42.498 7.216c2.96 14.56 7.408 26.177 13.376 34.881 5.952 8.689 14.273 15.536 24.945 20.496 10.656 4.976 22.608 7.472 35.841 7.472 22.641 0 40.802-7.216 54.465-21.664 11.264-11.809 16.897-25.153 16.897-40.034 0-21.105-11.536-37.953-34.609-50.529 13.776-2.96 24.801-9.568 33.057-19.841 8.256-10.288 12.385-22.704 12.385-37.249 0-21.105-7.712-39.105-23.137-53.969-15.424-14.897-34.609-22.32-57.586-22.32-21.776 0-39.825 6.256-54.145 18.784-14.337 12.497-22.656 28.865-24.945 49.106zM388.252 29.705h-46.113v173.75c-16.849-15.745-36.689-27.409-59.554-34.961v41.825c12.033 3.936 25.105 11.409 39.201 22.401 14.128 10.993 23.793 23.809 29.041 38.465h37.409v-241.479z" />
<glyph unicode="&#xe623;" d="M0 488.727v-512l161.265 160.007 161.249-160.007v512h-322.514zM258.008 295.225h-74.585v-74.585h-44.348v74.585h-74.585v44.348h74.585v74.585h44.348v-74.585h74.585v-44.348z" horiz-adv-x="323" />
<glyph unicode="&#xe624;" d="M0 488.727v-512l161.265 160.007 161.249-160.007v512h-322.514z" horiz-adv-x="323" />
<glyph unicode="&#xe625;" d="M393.376 50.103l73.376-73.376 45.248 45.248-73.376 73.376 73.376 73.376h-192v-192zM0 296.727h192v192l-73.376-73.376-72.624 72.688-45.248-45.248 72.624-72.688zM0 21.975l45.248-45.248 73.376 73.376 73.376-73.376v192h-192l73.376-73.376zM320 296.727h192l-73.376 73.376 72.752 72.688-45.248 45.248-72.752-72.688-73.376 73.376z" />
<glyph unicode="&#xe626;" d="M438.624 95.351l-73.376 73.376-45.248-45.248 73.376-73.376-73.376-73.376h192v192zM192 488.727h-192v-192l73.376 73.376 72.688-72.624 45.248 45.248-72.688 72.624zM192 123.479l-45.248 45.248-73.376-73.376-73.376 73.376v-192h192l-73.376 73.376zM512 488.727h-192l73.376-73.376-72.688-72.624 45.248-45.248 72.688 72.624 73.376-73.376z" />
<glyph unicode="&#xe627;" d="M73.143 72.727v-54.857q0-4-2.572-6.572t-6.572-2.572h-54.857q-4 0-6.572 2.572t-2.571 6.572v54.857q0 4 2.571 6.572t6.572 2.572h54.857q4 0 6.572-2.572t2.572-6.572zM182.857 109.299v-91.428q0-4-2.571-6.572t-6.572-2.572h-54.857q-4 0-6.572 2.572t-2.572 6.572v91.428q0 4 2.572 6.572t6.572 2.572h54.857q4 0 6.572-2.572t2.571-6.572zM292.572 182.441v-164.571q0-4-2.572-6.572t-6.572-2.572h-54.857q-4 0-6.571 2.572t-2.571 6.572v164.572q0 4 2.571 6.572t6.572 2.572h54.857q4 0 6.572-2.572t2.572-6.572zM402.286 292.155v-274.285q0-4-2.572-6.572t-6.572-2.572h-54.857q-4 0-6.572 2.572t-2.572 6.572v274.286q0 4 2.572 6.572t6.572 2.571h54.857q4 0 6.572-2.571t2.572-6.572zM512 438.441v-420.572q0-4-2.572-6.572t-6.572-2.572h-54.857q-4 0-6.572 2.572t-2.572 6.572v420.572q0 4 2.572 6.572t6.572 2.571h54.857q4 0 6.572-2.571t2.572-6.572z" />
<glyph unicode="&#xe628;" d="M256.384 408.087v-97.997l-179.635 0.026v-142.131h179.635v-97.817l194.125 168.986z" />
<glyph unicode="&#xe629;" d="M424.96 239.511l-97.997-0.025 0.026-179.609h-142.131v179.635l-97.817-0.025 168.985 194.15z" />
<glyph unicode="&#xe62a;" d="M424.96 238.743l-97.997 0.025 0.026 179.609h-142.131v-179.635l-97.817 0.025 168.96-194.151z" />
<glyph unicode="&#xe62b;" d="M255.616 70.167v97.997l179.635-0.026v142.131h-179.635v97.817l-194.125-168.986z" />
<glyph unicode="&#xe62c;" d="M127.565 111.127l0.025 82.637 379.289-0.026v90.957h-379.315l0.025 82.432-122.471-128z" />
<glyph unicode="&#xe62d;" d="M384 110.666l-82.637 0.026 0.026 379.315h-90.957v-379.341l-82.432 0.026 128-122.445z" />
<glyph unicode="&#xe62e;" d="M384 367.562h-82.637l0.026-379.315h-90.957v379.315h-82.432l128 122.445z" />
<glyph unicode="&#xe62f;" d="M384.461 111.127l-0.026 82.637-379.315-0.026v90.957h379.341l-0.026 82.432 122.445-128z" />
<glyph unicode="&#xe630;" d="M319.889 250.781h22.106l-25.506-113.089-33.163 159.005h-53.275l-38.557-159.005-28.908 159.005h-55.697l56.546-255.941h54.419l38.147 151.354 34.128-151.354h50.168l64.815 255.941h-85.223zM451.716 389.012l-71.432 71.431c-15.556 15.556-46.284 28.284-68.284 28.284h-240c-22 0-40-18-40-40v-432c0-22 18-40 40-40h368c22 0 40 18 40 40v304c0 22-12.728 52.729-28.284 68.285zM429.089 366.384c1.565-1.565 3.125-3.487 4.64-5.657h-81.729v81.728c2.17-1.515 4.092-3.075 5.657-4.64l71.432-71.431zM448 16.727c0-4.336-3.664-8-8-8h-368c-4.336 0-8 3.664-8 8v432c0 4.336 3.664 8 8 8h240c2.416 0 5.127-0.305 8-0.852v-127.148h127.148c0.547-2.873 0.852-5.583 0.852-8v-304z" />
<glyph unicode="&#xe631;" d="M0 227.394c0-138.454 112.213-250.667 250.667-250.667s250.666 112.213 250.666 250.667-112.213 250.666-250.666 250.666c-138.454 0-250.667-112.213-250.667-250.666zM224 398.060c0 14.72 11.947 26.667 26.667 26.667s26.666-11.947 26.666-26.667-11.946-26.666-26.666-26.666-26.667 11.946-26.667 26.666zM53.333 227.394c0 14.72 11.947 26.666 26.667 26.666s26.667-11.947 26.667-26.667-11.947-26.666-26.667-26.666-26.667 11.947-26.667 26.667zM394.667 227.394c0 14.72 11.947 26.667 26.667 26.667s26.667-11.947 26.667-26.667-11.948-26.667-26.668-26.667-26.666 11.947-26.666 26.667zM224 56.727c0 14.72 11.947 26.667 26.667 26.667s26.667-11.947 26.667-26.667-11.947-26.667-26.667-26.667-26.667 11.947-26.667 26.667zM211.52 214.711c-5.653 5.547-77.44 78.603-77.44 78.603-8.107 8.107-8.107 21.227 0 29.333s21.227 8.107 29.333 0l70.4-70.603c6.293-6.187 16.64-6.187 22.837 0l102.603 102.603c8.107 8.107 21.227 8.107 29.333 0s8.107-21.227 0-29.333c0 0-104.107-105.387-109.643-110.933-8.65-8.427-20.586-13.654-33.61-13.654-13.226 0-25.173 5.333-33.813 13.984z" />
<glyph unicode="&#xe632;" d="M432 201.719v48h32v-48h-32zM432 312.727h32v-48h-32v48zM432 376.727h32v-48h-32v48zM384 24.727h-288c-17.664 0-32 14.336-32 32h8c13.248 0 24 10.752 24 24s-10.752 24-24 24h-8v16h8c13.248 0 24 10.752 24 24s-10.752 24-24 24h-8v16h8c13.248 0 24 10.752 24 24s-10.752 24-24 24h-8v16h8c13.248 0 24 10.752 24 24s-10.752 24-24 24h-8v16h8c13.248 0 24 10.752 24 24s-10.752 24-24 24h-8v48c0 17.664 14.336 32 32 32h288c11.808 0 22.016-6.464 27.568-16h-315.568c-8.848 0-16-7.152-16-16 0-8.832 7.152-16 16-16h320v-336c0-17.664-14.336-32-32-32zM248 335.735c-19.328 0-35.008-20.592-35.008-46s15.664-46 35.008-46 35.008 20.592 35.008 46-15.68 46-35.008 46zM303.84 221.719c-8.624 5.744-33.456 9.568-33.456 9.568s-16.096-17.2-22.928-17.2c-6.848 0-22.944 17.2-22.944 17.2s-24.832-3.808-33.44-9.568c-8.624-5.728-12.432-36.176-12.432-36.176h137.84c0.016 0.016-2.512 29.44-12.64 36.176zM80 336.727c0-4.416-3.584-8-8-8h-16c-4.416 0-8 3.584-8 8s3.584 8 8 8h16c4.416 0 8-3.584 8-8zM56 280.727h16c4.416 0 8-3.584 8-8s-3.584-8-8-8h-16c-4.416 0-8 3.584-8 8s3.584 8 8 8zM56 216.727h16c4.416 0 8-3.584 8-8s-3.584-8-8-8h-16c-4.416 0-8 3.584-8 8s3.584 8 8 8zM56 152.727h16c4.416 0 8-3.584 8-8s-3.584-8-8-8h-16c-4.416 0-8 3.584-8 8s3.584 8 8 8zM56 88.727h16c4.416 0 8-3.584 8-8s-3.584-8-8-8h-16c-4.416 0-8 3.584-8 8s3.584 8 8 8z" />
<glyph unicode="&#xe633;" d="M170.896 197.415l-35.344-90.72 89.152 36.912-53.808 53.808zM429.68 391.175l-11.312 11.312c-12.48 12.496-32.752 12.496-45.248 0l-22.624-22.624 56.56-56.576 22.624 22.624c12.512 12.496 12.512 32.768 0 45.264zM172.688 202.039l8.096 8.096 56.56-56.56 158.4 158.4-56.56 56.56 11.312 11.328-177.808-177.824zM368.064 72.663l-272.416-0.096 0.048 272.416 190.736 0.064 29.888 31.68h-236.88c-8.832 0-16-7.152-16-16v-304c0-8.848 7.168-16 16-16h304c8.848 0 16 7.152 16 16v224.928l-32.24-31.632 0.864-177.36z" />
<glyph unicode="&#xe634;" d="M448.864 191.591c0-110.928-89.92-200.864-200.864-200.864-110.928 0-200.864 89.936-200.864 200.864 0 107.552 84.576 195.072 190.832 200.336v34.656h-15.056c-8.88 0-16.080 7.2-16.080 16.080s7.2 16.064 16.080 16.064h48.192c8.88 0 16.080-7.184 16.080-16.064s-7.2-16.080-16.080-16.080h-17.056v-34.448c108.112-3.2 194.816-91.664 194.816-200.544zM237.968 330.183v36.656c-49.744-2.816-93.856-26.24-124.256-61.728l26.448-26.448-11.36-11.376-25.040 25.056c-20.384-28.768-32.512-63.792-32.512-101.744 0-1.696 0.24-4.016 0.24-4.016h38.912v-16.080h-37.76c3.904-32.832 16.912-63.792 36.288-88.544l19.888 19.888 11.36-11.36-20.736-20.752c30.064-31.936 71.808-52.752 118.528-55.392v43.664h16.064v-43.872c47.824 1.632 90.72 22.288 121.584 54.56l-22.784 22.784 11.36 11.36 22.032-22.016c19.84 24.96 33.184 56.336 37.152 89.664h-40.8v16.080h41.936c0.048 1.664 0.256 2.32 0.256 4.016 0 39.008-12.8 74.896-34.208 104.080l-26.368-26.368-11.36 11.36 27.616 27.6c-31.152 35.248-76.048 58.096-126.4 59.792v-36.864h-16.080zM255.024 186.567h56.256c4.432 0 8.032-3.616 8.032-8.032 0-4.432-3.6-8.048-8.032-8.048h-64.288c-4.432 0-8.032 3.616-8.032 8.048v111.472c0 4.432 3.6 8.032 8.032 8.032s8.032-3.6 8.032-8.032v-103.44z" />
<glyph unicode="&#xe635;" d="M48 72.727h304v224h-304v-224zM95.008 312.727h272.992v-192h32v224h-304l-0.992-32zM144 392.727l-0.992-32h272.992v-192h32v224h-304z" />
<glyph unicode="&#xe636;" d="M271.744 231.975h-128v-14.496h128v14.496zM271.744 183.975h-128v-15.504h128v15.504zM192.256 424.471v-48.256h-48.512v-48.256h-47.248v-303.008h223.504v48.496h47.248v47.008h48.256v304h-223.248zM304.496 40.471h-192.496v273.008h192.496v-273.008zM351.744 87.975h-31.744v240h-160.752v32.752h192.496v-272.752zM400 135.975h-32.752v240.256h-159.504v32.752h192.256v-273.008zM271.744 88.231h-128v-15.504h128v15.504zM271.744 136.471h-128v-15.504h128v15.504zM271.984 280.471h-128v-16h128v16z" />
<glyph unicode="&#xe637;" d="M288.117 344.092l121.356 40.716 101.792-303.392-121.356-40.716zM0 40.727h128v352h-128v-352zM32 328.727h64v-32h-64v32zM160 40.727h128v352h-128v-352zM192 328.727h64v-32h-64v32z" />
<glyph unicode="&#xe638;" d="M512 328.727l-256 128-256-128 256-128 256 128zM256 414.242l171.029-85.515-171.029-85.515-171.029 85.515 171.029 85.515zM460.722 258.366l51.278-25.639-256-128-256 128 51.278 25.639 204.722-102.361zM460.722 162.366l51.278-25.639-256-128-256 128 51.278 25.639 204.722-102.361z" />
<glyph unicode="&#xe639;" d="M189.718 458.050l-91.968-67.84-12.416 2.517v-362.666l277.334-64v362.666l-209.024 48.939 45.226 35.072 206.464-41.344v-170.666h21.334v209.792l-236.95 47.531z" />
<glyph unicode="&#xe63a;" d="M314 248.727q0-14.857-10.572-26l-186.286-186q-10.572-10.572-25.715-10.572t-25.715 10.572l-21.715 21.428q-10.572 11.143-10.572 26 0 15.143 10.572 25.714l138.857 138.857-138.857 138.571q-10.572 11.143-10.572 26 0 15.143 10.572 25.714l21.715 21.428q10.285 10.857 25.715 10.857t25.715-10.857l186.286-186q10.572-10.571 10.572-25.714z" horiz-adv-x="329" />
<glyph unicode="&#xe63b;" d="M292.572 283.013q0-7.428-5.428-12.857l-128-128q-5.428-5.428-12.857-5.428t-12.857 5.428l-128 128q-5.428 5.428-5.428 12.857t5.428 12.857 12.857 5.428h256q7.428 0 12.857-5.428t5.428-12.857z" horiz-adv-x="293" />
<glyph unicode="&#xe63c;" d="M292.572 173.299q0-7.428-5.428-12.857l-128-128q-5.428-5.428-12.857-5.428t-12.857 5.428l-128 128q-5.428 5.428-5.428 12.857t5.428 12.857 12.857 5.428h256q7.428 0 12.857-5.428t5.428-12.857z" horiz-adv-x="293" />
<glyph unicode="&#xe63d;" d="M292.572 136.727q0-7.428-5.428-12.857t-12.857-5.428h-256q-7.428 0-12.857 5.428t-5.428 12.857 5.428 12.857l128 128q5.429 5.428 12.857 5.428t12.857-5.428l128-128q5.428-5.428 5.428-12.857z" horiz-adv-x="293" />
<glyph unicode="&#xe63e;" d="M292.572 283.013q0-7.428-5.428-12.857t-12.857-5.428h-256q-7.428 0-12.857 5.428t-5.428 12.857 5.428 12.857l128 128q5.429 5.428 12.857 5.428t12.857-5.428l128-128q5.428-5.428 5.428-12.857z" horiz-adv-x="293" />
<glyph unicode="&#xe63f;" d="M256 56.727v160l-160-160v352l160-160v160l176-176z" />
<glyph unicode="&#xe640;" d="M288 408.727v-160l160 160v-352l-160 160v-160l-176 176z" />
<glyph unicode="&#xe641;" d="M256 488.727c-141.385 0-256-35.817-256-80v-48l192-192v-160c0-17.673 28.653-32 64-32s64 14.327 64 32v160l192 192v48c0 44.183-114.615 80-256 80zM47.192 419.315c11.972 6.829 28.791 13.31 48.639 18.744 43.972 12.038 100.854 18.668 160.169 18.668s116.197-6.63 160.169-18.668c19.848-5.434 36.667-11.915 48.64-18.744 7.896-4.503 12.162-8.312 14.148-10.588-1.986-2.276-6.253-6.084-14.148-10.588-11.973-6.829-28.792-13.31-48.64-18.744-43.971-12.038-100.854-18.668-160.169-18.668s-116.197 6.63-160.169 18.668c-19.848 5.434-36.667 11.915-48.639 18.744-7.896 4.504-12.162 8.312-14.149 10.588 1.987 2.276 6.253 6.084 14.149 10.588z" />
<glyph unicode="&#xe642;" d="M0 424.727l192-192v-192l128 32v160l192 192z" />
<glyph unicode="&#xe643;" d="M0 296.727h512v-128h-512z" />
<glyph unicode="&#xe644;" d="M212.352 59.927c-11.136 0-21.683 5.197-28.441 14.157l-91.495 120.781c-11.904 15.719-8.806 38.093 6.912 49.997 15.744 11.929 38.093 8.806 49.997-6.912l60.185-79.463 151.347 242.97c10.419 16.717 32.435 21.837 49.178 11.418 16.717-10.394 21.837-32.435 11.392-49.152l-178.765-286.976c-6.221-10.010-16.947-16.281-28.697-16.793-0.537-0.026-1.075-0.026-1.613-0.026z" />
<glyph unicode="&#xe645;" d="M480 72.727h-448c-9 0-16.584 3.164-22.752 9.5s-9.252 13.836-9.252 22.5v32c0 9 3.084 16.584 9.252 22.752s13.752 9.252 22.752 9.252h173c12.668 16.332 19 37.668 19 64 0 24.332-4.668 46.584-14 66.752s-21.832 35.752-37.5 46.752c-8.332 14.668-12.5 30.168-12.5 46.5 0 26.668 9.332 49.416 28 68.252s41.332 28.252 68 28.252c26.664 0 49.336-9.416 68-28.252s28-41.584 28-68.252c0-16.332-4.164-31.832-12.5-46.5-15.664-11-28.164-26.584-37.5-46.752s-14-42.42-14-66.752c0-26.332 6.336-47.668 19-64h173c9 0 16.584-3.084 22.752-9.252 6.172-6.164 9.252-13.752 9.252-22.752v-32c0-8.664-3.084-16.164-9.252-22.5s-13.752-9.5-22.752-9.5zM480 8.727c0-8.664-3.084-16.164-9.252-22.5-6.172-6.336-13.752-9.5-22.752-9.5h-384c-9 0-16.584 3.164-22.752 9.5s-9.252 13.836-9.252 22.5v32h448v-32h0.008z" />
<glyph unicode="&#xe646;" d="M496.382 375.112c-26.298-31.648-52.26-63.541-78.963-94.892-46.115-54.142-93.406-107.382-145.205-156.984-19.879-19.035-40.263-37.635-64.064-52.519-6.091-3.807-12.93-6.63-19.597-9.57-6.482-2.861-13.060-2.11-18.69 1.769-6.338 4.369-12.327 9.211-18.148 14.173-4.595 3.917-8.917 8.157-12.96 12.572-3.321 3.627-7.014 3.911-10.654 1.387-6.471-4.487-12.623-9.378-18.795-14.226-2.802-2.2-5.332-4.699-7.863-6.954-16.61 15.538-33.228 31.084-49.982 46.754 5.956 6.991 12.545 14.284 18.591 21.947 6.783 8.594 6.403 8.587-1.681 16.18-7.466 7.015-14.719 14.243-21.712 21.667-7.389 7.841-7.657 16.438-2.659 25.702 7.724 14.315 18.375 26.625 29.654 38.511 28.882 30.438 61.111 57.689 93.988 84.266 68.547 55.417 140.018 107.455 212.813 157.936 12.169 8.44 18.643 7.905 29.491-2.153 28.81-26.714 57.625-53.421 86.439-80.131-0.001-8.477-0.001-16.957-0.001-25.435zM395.764 455.85c-1.272-0.78-2.425-1.436-3.523-2.163-65.942-43.74-130.629-89.012-192.484-137.678-33.136-26.070-65.527-52.91-93.675-83.803-9.064-9.947-17.275-20.453-22.865-32.562-3.1-6.712-3.247-13.117 1.594-19.079 4.865-5.993 9.776-11.981 15.102-17.617 5.206-5.512 10.961-10.577 16.788-16.135-8.5-10.127-17.060-20.325-25.311-30.156 4.138-3.827 7.916-7.322 11.87-10.979 9.906 6.423 20.138 12.781 30.002 19.599 3.591 2.481 5.21 1.709 8.2-0.89 9.451-8.219 19.161-16.214 29.234-23.76 5.606-4.2 12.267-4.231 19.153-1.755 13.605 4.889 25.075 12.821 36.052 21.397 34.39 26.863 63.987 58.060 92.938 89.788 44.774 49.064 86.647 100.243 127.478 152.169 7.135 9.075 14.126 18.247 20.835 26.924-24.022 22.448-47.568 44.447-71.386 66.703zM93.808 64.574c-6.469-6.201-12.939-13.070-20.183-19.144-6.524-5.468-14.633-6.313-22.751-3.202-14.614 5.597-29.125 11.433-43.612 17.308-7.552 3.062-9.586 8.723-4.332 13.738 13.526 12.909 27.509 25.402 41.18 37.944 16.495-15.482 33.087-31.057 49.699-46.644zM155.423 233.658c6.042 4.524 12.653 9.47 19.004 14.225 25.375-25.365 50.508-50.489 75.874-75.849-4.829-5.976-9.915-12.268-14.908-18.449-26.662 26.697-53.119 53.188-79.97 80.072zM483.599-23.273h-451.156l36.254 59.657h414.903z" horiz-adv-x="497" />
<glyph unicode="&#xe647;" d="M65.373-23.264c-16.6 0-36.702 2.829-49.864 11-10.634 6.599-14.303 14.965-15.509 20.817l30.297 6.25c-0.067 0.327-0.195 0.562-0.234 0.623 4.556-6.537 37.484-9.887 50.557-6.462 8.256 2.166 15.323 6.435 23.508 11.377 7.138 4.313 14.514 8.769 23.499 12.327 20.008 7.911 43.658 16.017 71.034 11.99 9.861-1.45 18.66-4.111 27.173-6.687 10.89-3.293 21.179-6.404 32.384-6.404 0.005 0 0.005 0 0.009 0 17.701 0.005 32.322 8.791 51.043 21.214l2.015 1.33c6.784 4.477 10.519 6.939 14.577 12.141 6.426 8.238 13.816 16.644 27.079 20.94 24.207 7.858 47.305 1.719 67.68-3.69 21.091-5.608 39.305-10.435 56.572-0.862 3.39 1.878 3.593 1.989 5.238 6.338l28.936-10.957c-4.181-11.045-9.202-16.919-19.177-22.444-28.176-15.611-55.445-8.371-79.502-1.976-17.825 4.729-34.659 9.193-50.204 4.163-4.15-1.348-6.895-3.712-12.225-10.546-7.178-9.202-14.019-13.714-21.935-18.934l-1.949-1.291c-17.706-11.743-39.743-26.363-68.135-26.368-0.009 0-0.014 0-0.017 0-15.779 0-28.773 3.933-41.342 7.73-7.774 2.351-15.12 4.575-22.718 5.688-17.909 2.634-34.381-1.932-55.154-10.152-6.581-2.603-12.556-6.214-18.886-10.037-9.379-5.666-19.076-11.522-31.663-14.824-5.26-1.375-13.604-2.298-23.088-2.298zM66.95 162.984c0 0-25.135-98.728-34.12-137.348l48.264 66.079c-4.367 9.719-1.728 24.534 5.931 32.914 10.298 11.221 28.631 11.221 39.853 0.933 11.274-10.307 12.026-27.743 1.742-38.991-7.796-8.548-22.245-11.973-32.432-8.168l-60.321-56.728 127.218 49.28 51.101 76.594-66.875 62.619-80.359-47.185zM424.573 487.799c-19.296-13.228-260.875-258.767-260.875-258.767l68.029-64.948c0 0 204.806 242.352 234.534 291.659-4.349 41.51-41.687 32.056-41.687 32.056z" />
<glyph unicode="&#xe648;" d="M458.579 232.753l45.975-44.975c6.663-6.219 8.884-13.993 6.663-23.32-2.664-9.106-8.439-14.77-17.324-16.99l-62.632-15.991 17.657-61.966c2.664-9.106 0.555-16.879-6.33-23.32-6.441-6.885-14.214-8.995-23.32-6.33l-61.966 17.658-15.991-62.632c-2.22-8.884-7.885-14.659-16.99-17.323-2.665-0.445-4.776-0.667-6.33-0.667-6.885 0-12.549 2.443-16.99 7.33l-44.975 45.974-44.975-45.974c-6.219-6.663-13.993-8.884-23.32-6.663-9.106 2.442-14.77 8.217-16.99 17.323l-15.992 62.632-61.965-17.658c-9.106-2.665-16.879-0.555-23.32 6.33-6.885 6.441-8.995 14.215-6.33 23.32l17.657 61.966-62.633 15.991c-8.884 2.22-14.659 7.885-17.324 16.99-2.221 9.329 0 17.101 6.663 23.32l45.974 44.975-45.974 44.974c-6.663 6.219-8.884 13.992-6.663 23.32 2.665 9.106 8.44 14.77 17.324 16.99l62.632 15.992-17.657 61.965c-2.665 9.106-0.555 16.879 6.33 23.32 6.441 6.885 14.215 8.995 23.32 6.329l61.965-17.656 15.992 62.632c2.22 9.106 7.885 14.77 16.99 16.99 9.106 2.665 16.88 0.555 23.32-6.33l44.975-46.308 44.975 46.308c6.441 6.663 14.214 8.774 23.32 6.33 9.106-2.22 14.77-7.885 16.99-16.99l15.991-62.632 61.966 17.656c9.106 2.665 16.88 0.555 23.32-6.329 6.886-6.441 8.995-14.215 6.33-23.32l-17.658-61.965 62.632-15.99c8.884-2.221 14.659-7.885 17.324-16.99 2.221-9.329 0-17.101-6.663-23.32l-45.975-44.975z" />
<glyph unicode="&#xe649;" d="M440 8.727v298.672c0 8.896-2.304 18.656-6.88 29.328-4.592 10.656-10.096 19.088-16.496 25.328l-107.248 104c-6.416 6.24-15.12 11.584-26.144 16-10.992 4.448-21.072 6.672-30.24 6.672h-219.984c-9.2 0-16.992-3.088-23.376-9.328-6.448-6.24-9.648-13.76-9.648-22.672v-448c0-8.912 3.184-16.432 9.648-22.672 6.384-6.208 14.176-9.328 23.376-9.328h373.968c9.168 0 16.976 3.088 23.392 9.328 6.448 6.24 9.632 13.792 9.632 22.672zM88 117.719c0 3.088 1.024 5.664 3.088 7.664s4.704 3.008 7.904 3.008h242c3.2 0 5.84-0.992 7.904-3.008 2.064-2 3.088-4.56 3.088-7.664v-21.328c0-3.104-1.024-5.664-3.088-7.664s-4.672-3.008-7.904-3.008h-241.984c-3.2 0-5.84 1.008-7.904 3.008s-3.104 4.56-3.104 7.664v21.328zM341.008 219.751c3.2 0 5.84-1.008 7.904-3.008s3.088-4.56 3.088-7.664v-21.312c0-3.104-1.024-5.664-3.088-7.664s-4.672-3.008-7.904-3.008h-242c-3.2 0-5.84 1.008-7.904 3.008s-3.104 4.544-3.104 7.648v21.312c0 3.104 1.024 5.664 3.088 7.664s4.704 3.008 7.904 3.008h242.016zM393.248 318.071h-129.232v125.344c6.624-2.256 11.328-4.672 14.064-7.344l107.616-104.336c2.736-2.672 5.28-7.232 7.552-13.664z" horiz-adv-x="440" />
<glyph unicode="&#xe64a;" d="M512 40.727l-224 224 96 96-384 128 128-383.936 96 96 224-224.064z" />
<glyph unicode="&#xe64b;" d="M293.572 229.227c0-95.623 77.492-173.111 173.102-173.111s173.106 77.492 173.106 173.111c0 95.615-77.492 173.102-173.106 173.102s-173.102-77.492-173.102-173.102zM448.267 347.083c0 10.164 8.246 18.41 18.406 18.41 10.176 0 18.422-8.246 18.422-18.41 0-10.168-8.246-18.414-18.414-18.414s-18.414 8.246-18.414 18.414v0zM330.399 229.227c0 10.164 8.25 18.41 18.422 18.41 10.16 0 18.406-8.254 18.406-18.418s-8.246-18.41-18.406-18.41c-10.172-0.004-18.422 8.246-18.422 18.418zM566.12 229.227c0 10.164 8.254 18.41 18.422 18.41 10.16 0 18.406-8.246 18.406-18.41 0-10.172-8.246-18.418-18.406-18.418-10.168 0-18.414 8.246-18.414 18.418h-0.008zM448.267 111.363c0 10.164 8.246 18.418 18.406 18.418 10.176 0 18.422-8.254 18.422-18.418s-8.246-18.41-18.422-18.41c-10.16-0.004-18.406 8.246-18.406 18.41zM439.642 220.462c-3.904 3.832-53.476 54.284-53.476 54.284-5.601 5.597-5.601 14.663 0 20.256 5.594 5.598 14.654 5.598 20.248 0l48.623-48.758c4.339-4.271 11.486-4.271 15.769 0l70.852 70.856c5.601 5.598 14.663 5.598 20.256 0 5.593-5.601 5.593-14.659 0-20.256 0 0-71.89-72.777-75.722-76.609-5.969-5.821-14.211-9.425-23.209-9.425-9.121 0-17.375 3.68-23.341 9.652v0zM466.674 38.138c-105.363 0-191.081 85.722-191.081 191.089 0 12.133 1.187 23.992 3.36 35.502h-118.954c-17.595 0-32.002 14.403-32.002 32.002v159.998h255.992v-55.25c25.034 12.065 53.085 18.834 82.686 18.834 5.885 0 11.698-0.308 17.452-0.831l-62.625 69.25h-357.495c-35.202 0-64.004-28.802-64.004-64.004v-383.996c0-35.202 28.802-64.004 64.004-64.004h383.996c35.194 0 63.996 28.802 63.996 64.004v2.889c-14.538-3.556-29.709-5.481-45.322-5.481zM288.002 296.871c12.945 34.072 35.338 63.524 64.004 85.099v42.753h-64.004v-127.852z" horiz-adv-x="640" />
</font>
</defs>
</svg>
